<?xml version="1.0" standalone="no"?>
<!DOCTYPE svg PUBLIC "-//W3C//DTD SVG 20010904//EN"
 "http://www.w3.org/TR/2001/REC-SVG-20010904/DTD/svg10.dtd">
<svg version="1.0" xmlns="http://www.w3.org/2000/svg"
 width="512.000000pt" height="512.000000pt" viewBox="0 0 512.000000 512.000000"
 preserveAspectRatio="xMidYMid meet">

<g transform="translate(0.000000,512.000000) scale(0.100000,-0.100000)"
fill="#000000" stroke="none">
<path d="M1560 5106 c-209 -39 -376 -126 -528 -276 -111 -110 -209 -284 -253
-450 -32 -119 -32 -338 -1 -455 60 -224 263 -900 279 -928 25 -44 94 -77 159
-77 l53 0 10 -52 c6 -29 17 -89 25 -133 19 -102 27 -124 62 -156 51 -47 63
-49 258 -49 170 0 186 -1 186 -17 0 -10 11 -112 25 -228 25 -214 25 -224 -13
-225 -26 0 -90 -40 -120 -74 -73 -83 -67 -201 14 -283 44 -43 92 -63 156 -63
36 0 37 -1 42 -42 19 -140 22 -179 15 -184 -5 -3 -31 -12 -59 -20 -244 -73
-192 -414 63 -414 l54 0 12 -100 c6 -56 11 -106 11 -113 0 -7 -22 -19 -48 -26
-60 -15 -116 -60 -143 -114 -17 -32 -20 -54 -17 -108 3 -58 8 -74 34 -106 45
-55 105 -86 170 -86 62 0 59 4 69 -107 11 -119 38 -168 110 -201 36 -17 71
-19 375 -19 305 0 339 2 376 19 46 21 78 57 93 104 8 25 61 440 61 477 0 4 21
13 46 19 142 36 210 132 184 258 -10 44 -21 64 -55 99 -25 25 -60 48 -85 55
-34 10 -40 16 -36 33 2 12 10 71 16 131 l12 111 63 18 c111 32 174 108 175
209 0 26 -6 63 -14 81 -20 48 -78 102 -128 118 -49 17 -47 3 -25 177 l12 94
53 18 c74 25 106 52 136 111 32 64 33 122 4 184 -21 47 -81 99 -124 110 -19 5
-22 11 -17 42 2 21 6 43 9 50 2 9 48 12 184 12 267 0 281 11 325 248 l27 142
52 0 c72 0 135 33 162 85 26 48 268 867 289 978 36 189 -1 443 -88 599 -36 65
-102 68 -136 6 -14 -25 -14 -31 8 -80 68 -154 95 -329 72 -474 -8 -52 -178
-655 -267 -946 -5 -17 -57 -18 -899 -18 -643 0 -901 -3 -919 -11 -51 -23 -55
-103 -7 -128 13 -8 269 -11 800 -11 l780 0 -6 -32 c-2 -18 -12 -71 -21 -118
l-17 -85 -1095 0 -1095 0 -20 115 -21 115 218 5 c187 4 220 7 238 22 30 26 27
81 -6 107 -26 20 -38 21 -359 21 l-332 0 -123 418 c-146 496 -147 502 -156
617 -23 327 172 649 478 789 118 54 196 70 338 70 109 0 144 -5 276 -37 241
-59 333 -70 564 -70 231 0 320 11 563 69 134 33 168 37 282 38 106 0 144 -4
208 -22 98 -28 215 -86 291 -146 72 -55 113 -61 145 -20 32 40 26 63 -28 115
-102 98 -288 185 -465 215 -117 21 -261 13 -411 -22 -220 -51 -293 -63 -437
-76 -230 -19 -400 -1 -733 76 -137 32 -308 41 -415 22z m1597 -2632 c-3 -31
-7 -57 -9 -58 -6 -5 -1114 -299 -1127 -300 -12 -1 -20 39 -37 189 -13 105 -23
198 -23 208 -1 16 34 17 600 17 l602 0 -6 -56z m143 -204 c25 -25 26 -62 1
-84 -11 -10 -124 -46 -258 -82 -199 -53 -242 -68 -260 -89 -28 -32 -29 -55 -2
-89 27 -34 52 -34 195 5 64 17 117 29 119 27 5 -6 -25 -231 -32 -239 -4 -4
-226 -65 -493 -136 l-485 -130 -7 43 c-3 24 -9 76 -13 116 l-7 73 242 65 c134
35 253 73 266 83 47 37 20 127 -38 127 -12 0 -168 -39 -345 -86 -349 -94 -365
-95 -379 -39 -14 55 7 67 238 129 117 31 436 117 708 191 272 73 503 134 513
134 9 1 26 -8 37 -19z m-56 -696 c24 -23 20 -71 -6 -88 -25 -16 -1287 -356
-1321 -356 -53 0 -78 76 -34 104 28 19 1270 354 1314 355 17 1 39 -6 47 -15z
m-241 -431 c-8 -65 -18 -121 -21 -124 -12 -11 -813 -222 -819 -216 -4 5 -33
219 -29 223 3 4 853 232 867 233 14 1 14 -10 2 -116z m166 -287 c12 -25 11
-31 -6 -55 -18 -24 -73 -40 -592 -179 -545 -146 -574 -153 -597 -137 -28 18
-34 75 -10 94 24 20 1107 309 1151 308 33 -2 42 -7 54 -31z m-239 -318 c0 -33
-39 -361 -45 -375 -3 -10 -77 -13 -324 -13 -296 0 -320 1 -325 17 -9 30 -27
195 -22 200 5 6 684 191 704 192 6 1 12 -9 12 -21z"/>
<path d="M1920 4660 c-30 -30 -27 -85 6 -106 31 -21 184 -59 329 -81 150 -23
460 -23 610 0 151 23 315 64 337 84 24 22 24 85 0 106 -21 19 -71 22 -122 7
-86 -25 -245 -51 -377 -62 -204 -17 -480 9 -663 62 -55 16 -98 12 -120 -10z"/>
</g>
</svg>
