<?xml version="1.0" standalone="no"?>
<!DOCTYPE svg PUBLIC "-//W3C//DTD SVG 20010904//EN"
 "http://www.w3.org/TR/2001/REC-SVG-20010904/DTD/svg10.dtd">
<svg version="1.0" xmlns="http://www.w3.org/2000/svg"
 width="512.000000pt" height="512.000000pt" viewBox="0 0 512.000000 512.000000"
 preserveAspectRatio="xMidYMid meet">

<g transform="translate(0.000000,512.000000) scale(0.100000,-0.100000)"
fill="#000000" stroke="none">
<path d="M2450 5053 c-8 -3 -25 -15 -37 -26 -33 -30 -29 -74 17 -212 63 -189
57 -230 -59 -404 -79 -116 -85 -133 -67 -176 28 -67 60 -69 221 -15 130 44
217 52 278 27 18 -8 81 -46 140 -85 123 -82 160 -90 202 -47 35 34 32 70 -15
210 -64 189 -57 233 59 409 80 121 90 165 49 203 -40 36 -56 35 -199 -12 -207
-68 -237 -64 -419 55 -118 77 -137 85 -170 73z m184 -205 c44 -27 98 -53 120
-59 76 -21 165 -13 279 24 l105 34 -59 -91 c-76 -119 -92 -163 -92 -256 -1
-59 6 -95 32 -173 18 -54 31 -100 29 -102 -2 -2 -35 17 -73 42 -125 81 -169
97 -265 97 -69 0 -103 -6 -180 -32 -52 -17 -96 -30 -98 -28 -1 2 21 41 51 87
106 165 117 254 53 437 l-35 104 27 -18 c15 -10 63 -39 106 -66z"/>
<path d="M3664 4549 c-54 -15 -71 -47 -144 -264 -71 -211 -101 -278 -149 -335
l-26 -32 -99 12 c-241 31 -495 -30 -691 -165 -109 -75 -167 -98 -260 -103
-101 -5 -162 15 -272 90 -321 220 -713 247 -1055 71 -374 -192 -596 -602 -548
-1013 21 -183 69 -313 183 -494 28 -45 72 -126 98 -181 96 -202 129 -353 129
-584 0 -80 5 -195 10 -256 37 -399 185 -756 427 -1026 146 -163 209 -203 318
-203 113 1 198 50 250 146 l29 53 8 275 c8 344 34 522 105 745 121 377 292
503 443 326 72 -84 145 -245 190 -421 54 -211 70 -351 79 -665 l6 -260 30 -53
c51 -94 136 -144 245 -145 91 -2 147 26 243 121 221 216 368 476 451 792 35
135 54 283 65 525 17 351 74 546 250 855 124 217 163 350 163 555 0 105 -17
234 -38 290 -12 29 108 90 323 164 114 40 219 79 231 87 32 21 54 77 46 119
-11 59 -44 78 -278 160 -247 86 -287 106 -366 185 -74 74 -97 122 -180 361
-39 112 -78 214 -86 226 -25 39 -79 56 -130 42z m117 -303 c38 -109 84 -226
102 -260 42 -79 149 -192 226 -237 34 -20 158 -70 277 -110 149 -52 214 -78
212 -88 -2 -8 -85 -42 -201 -82 -230 -79 -299 -114 -380 -188 -111 -103 -146
-169 -242 -458 -35 -106 -62 -173 -70 -173 -8 0 -35 66 -70 168 -83 241 -109
299 -165 374 -53 70 -142 144 -220 182 -25 13 -136 54 -247 92 -112 38 -203
74 -203 80 0 6 93 44 208 84 273 95 353 142 444 258 64 81 91 138 163 353 70
207 72 212 87 207 6 -2 42 -93 79 -202z m-2081 -451 c101 -32 186 -74 255
-123 28 -20 72 -48 99 -63 55 -31 59 -26 -45 -49 -65 -13 -286 -40 -335 -40
-48 0 -74 -19 -74 -55 0 -45 32 -54 150 -44 350 31 656 118 835 239 91 62 215
121 300 145 37 10 113 18 200 21 l140 5 -37 -21 c-21 -11 -122 -50 -225 -85
-104 -36 -199 -70 -211 -77 -32 -17 -52 -58 -52 -107 0 -74 26 -90 280 -179
244 -84 309 -119 381 -200 57 -66 90 -135 164 -350 36 -103 70 -197 77 -209
39 -76 166 -75 205 1 8 16 44 114 79 217 61 181 103 281 123 294 17 10 26 -65
25 -210 -2 -208 -28 -291 -177 -552 -105 -183 -174 -378 -212 -598 -9 -49 -20
-187 -25 -305 -5 -118 -16 -252 -24 -298 -63 -350 -211 -644 -441 -877 -41
-42 -90 -82 -109 -90 -88 -37 -192 -1 -233 79 -12 23 -16 77 -19 245 -6 425
-68 749 -191 1001 -47 96 -67 127 -127 187 -61 60 -81 74 -131 88 -49 15 -67
16 -111 6 -277 -62 -474 -626 -474 -1359 0 -160 -7 -183 -65 -228 -43 -32
-115 -42 -171 -24 -51 17 -197 165 -281 283 -106 151 -201 357 -249 539 -35
136 -46 232 -54 473 -5 146 -15 288 -25 340 -31 176 -122 399 -231 567 -64
100 -100 175 -131 275 -24 80 -27 103 -27 253 -1 143 2 175 22 243 88 305 311
540 603 636 108 35 147 40 309 37 137 -3 165 -6 240 -31z"/>
</g>
</svg>
