<?xml version="1.0" standalone="no"?>
<!DOCTYPE svg PUBLIC "-//W3C//DTD SVG 20010904//EN"
 "http://www.w3.org/TR/2001/REC-SVG-20010904/DTD/svg10.dtd">
<svg version="1.0" xmlns="http://www.w3.org/2000/svg"
 width="872.000000pt" height="1080.000000pt" viewBox="0 0 872.000000 1080.000000"
 preserveAspectRatio="xMidYMid meet">

<g transform="translate(0.000000,1080.000000) scale(0.100000,-0.100000)"
fill="#000000" stroke="none">
<path d="M2458 10553 c12 -2 22 -9 22 -15 0 -6 18 -9 44 -7 25 2 42 0 38 -5
-3 -5 2 -6 12 -3 10 4 30 8 44 8 35 2 -114 28 -153 27 -23 -1 -25 -2 -7 -5z"/>
<path d="M2225 10540 l-20 -9 20 1 c11 0 31 4 45 8 l25 8 -25 0 c-14 0 -34 -3
-45 -8z"/>
<path d="M1953 10533 c-18 -2 -33 -9 -33 -14 0 -6 -8 -8 -18 -5 -19 6 -238
-56 -282 -80 -37 -19 -9 -17 31 3 19 10 51 17 72 17 20 0 37 4 37 7 0 16 80
38 115 32 25 -4 40 -2 45 7 5 7 34 19 67 26 55 12 36 16 -34 7z"/>
<path d="M2668 10523 c6 -2 18 -2 25 0 6 3 1 5 -13 5 -14 0 -19 -2 -12 -5z"/>
<path d="M2720 10510 c0 -6 11 -10 25 -10 13 0 34 -4 47 -9 41 -16 179 -53
183 -49 5 5 -178 64 -222 72 -19 3 -33 1 -33 -4z"/>
<path d="M2990 10435 c0 -8 81 -45 100 -45 8 0 -1 8 -20 19 -42 22 -80 35 -80
26z"/>
<path d="M1560 10410 c-13 -8 -13 -10 2 -10 9 0 20 5 23 10 8 13 -5 13 -25 0z"/>
<path d="M1392 10335 c-112 -59 -235 -136 -267 -166 -11 -10 -54 -45 -95 -78
-41 -33 -90 -74 -107 -93 -27 -28 -30 -34 -14 -34 12 0 17 5 13 15 -4 11 -1
13 12 8 13 -5 17 -3 13 7 -4 9 1 17 12 21 10 3 41 28 68 55 35 35 56 48 67 44
9 -4 16 -3 14 2 -5 17 28 52 47 51 11 -1 20 3 20 8 1 18 16 35 31 35 8 0 24 9
36 20 12 10 26 17 31 13 6 -3 7 -1 3 5 -4 7 -1 12 6 12 7 0 37 16 67 35 29 19
57 33 62 29 5 -3 9 0 9 6 0 7 7 9 16 6 8 -3 12 -2 9 4 -3 6 -3 10 2 10 4 0 19
9 33 20 38 29 25 24 -88 -35z"/>
<path d="M3150 10358 c25 -11 47 -24 50 -29 3 -4 17 -10 32 -14 15 -4 32 -13
39 -21 6 -8 16 -14 21 -14 18 0 207 -97 201 -104 -3 -3 2 -6 13 -6 10 0 30 -7
44 -15 14 -7 40 -21 58 -29 17 -8 32 -20 32 -26 0 -6 5 -8 11 -4 6 3 14 3 18
-2 6 -9 76 -44 87 -44 28 0 -116 81 -356 201 -220 110 -261 129 -279 128 -9 0
4 -10 29 -21z"/>
<path d="M3786 10035 c10 -8 24 -14 29 -14 6 0 1 6 -9 14 -11 8 -24 15 -30 15
-5 0 -1 -7 10 -15z"/>
<path d="M3845 10008 c30 -16 31 -18 15 -28 -10 -6 -5 -9 16 -8 33 1 57 -9 50
-20 -2 -4 9 -8 25 -9 16 -1 29 -1 29 1 0 5 -140 76 -148 76 -4 0 2 -6 13 -12z"/>
<path d="M865 9950 c-3 -5 -2 -18 4 -27 7 -14 9 -12 8 10 -2 30 -3 31 -12 17z"/>
<path d="M4035 9905 c22 -14 46 -25 53 -25 6 0 12 -7 12 -15 0 -9 6 -18 14
-21 8 -3 12 -12 10 -19 -3 -7 -1 -16 5 -20 14 -8 14 -45 0 -45 -5 0 -8 -3 -6
-7 3 -5 -1 -14 -9 -21 -8 -7 -14 -9 -14 -5 0 4 -4 3 -8 -3 -8 -13 -89 -40
-147 -50 -55 -9 -81 -25 -30 -18 134 18 218 47 234 80 29 64 3 136 -54 150
-14 3 -25 10 -25 14 0 7 -54 30 -69 30 -3 0 12 -12 34 -25z"/>
<path d="M790 9866 c0 -2 8 -10 18 -17 15 -13 16 -12 3 4 -13 16 -21 21 -21
13z"/>
<path d="M696 9748 c-31 -40 -59 -78 -63 -83 -5 -6 -14 -18 -21 -27 -12 -15
-11 -17 7 -15 11 0 18 4 16 7 -7 11 25 50 40 50 8 0 19 10 26 21 9 17 8 20 -2
14 -9 -6 -11 -3 -6 9 4 10 7 21 7 24 0 4 5 0 11 -8 9 -13 10 -13 6 1 -7 21 38
73 54 63 8 -4 9 -3 5 4 -13 21 -24 13 -80 -60z"/>
<path d="M2150 9789 c-154 -22 -288 -66 -413 -134 -54 -30 -107 -57 -118 -60
-10 -4 -17 -11 -14 -16 4 -5 -2 -9 -12 -9 -10 0 -31 -14 -47 -30 -16 -17 -30
-29 -32 -27 -5 5 -84 -70 -84 -79 0 -3 21 12 48 34 61 51 199 141 293 190 178
95 319 125 574 126 111 0 159 3 125 7 -73 9 -251 8 -320 -2z"/>
<path d="M2598 9773 c6 -2 18 -2 25 0 6 3 1 5 -13 5 -14 0 -19 -2 -12 -5z"/>
<path d="M2653 9763 c9 -2 23 -2 30 0 6 3 -1 5 -18 5 -16 0 -22 -2 -12 -5z"/>
<path d="M2790 9748 c0 -4 14 -8 30 -8 17 0 30 2 30 4 0 2 -13 6 -30 8 -16 3
-30 1 -30 -4z"/>
<path d="M2905 9732 c9 -7 100 -23 225 -37 34 -4 34 -4 -7 10 -23 7 -72 16
-110 20 -37 3 -79 8 -93 11 -15 3 -21 2 -15 -4z"/>
<path d="M3285 9670 c151 -24 363 -39 480 -33 162 9 108 18 -88 16 -106 -2
-205 2 -222 7 -16 5 -57 12 -90 14 -193 16 -200 16 -80 -4z"/>
<path d="M577 9583 c-11 -13 -17 -27 -14 -30 3 -2 13 7 23 21 22 34 15 42 -9
9z"/>
<path d="M523 9493 c-29 -49 -40 -89 -23 -78 5 3 10 13 10 21 0 8 4 13 8 10 5
-3 16 17 24 44 9 28 15 50 13 50 -3 0 -17 -21 -32 -47z"/>
<path d="M1317 9329 c-37 -39 -67 -76 -67 -81 0 -5 -4 -7 -8 -4 -5 3 -18 -12
-29 -32 -32 -60 -48 -87 -54 -92 -4 -3 -9 -15 -13 -28 -4 -12 -12 -20 -17 -17
-5 4 -9 1 -9 -5 0 -6 -15 -44 -34 -83 -63 -135 -76 -167 -76 -184 0 -9 -6 -24
-13 -32 -13 -15 -42 -120 -67 -246 -7 -33 -16 -75 -21 -94 -4 -19 -6 -38 -3
-42 2 -4 0 -27 -5 -51 -5 -24 -12 -99 -15 -168 -3 -69 -10 -197 -15 -285 -13
-202 13 -983 34 -1003 4 -4 5 22 1 58 -3 36 -9 274 -12 530 -9 636 7 866 81
1162 48 192 104 323 225 525 25 41 100 135 157 196 25 26 41 47 36 47 -5 0
-39 -32 -76 -71z"/>
<path d="M440 9334 c-21 -49 -26 -71 -9 -41 6 9 14 15 19 12 4 -3 6 5 3 17 -3
17 -2 19 5 10 6 -10 9 -5 8 17 -1 17 -2 31 -3 31 -1 0 -11 -21 -23 -46z"/>
<path d="M365 9169 c-4 -6 -5 -12 -2 -15 2 -3 7 2 10 11 7 17 1 20 -8 4z"/>
<path d="M381 9144 c0 -11 3 -14 6 -6 3 7 2 16 -1 19 -3 4 -6 -2 -5 -13z"/>
<path d="M331 9069 c-7 -23 -15 -47 -18 -55 -3 -8 -1 -14 4 -14 8 0 36 100 30
107 -2 2 -9 -15 -16 -38z"/>
<path d="M351 9054 c0 -11 3 -14 6 -6 3 7 2 16 -1 19 -3 4 -6 -2 -5 -13z"/>
<path d="M291 8944 c-14 -53 -7 -73 7 -22 5 18 13 41 17 51 4 9 3 17 -3 17 -5
0 -15 -21 -21 -46z"/>
<path d="M302 8875 c0 -16 2 -22 5 -12 2 9 2 23 0 30 -3 6 -5 -1 -5 -18z"/>
<path d="M267 8843 c-2 -10 -4 -31 -5 -48 0 -16 2 -22 5 -12 2 9 8 15 11 13 4
-2 7 11 8 30 1 36 -12 46 -19 17z"/>
<path d="M232 8630 c0 -19 2 -27 5 -17 2 9 2 25 0 35 -3 9 -5 1 -5 -18z"/>
<path d="M212 8505 c0 -16 2 -22 5 -12 2 9 2 23 0 30 -3 6 -5 -1 -5 -18z"/>
<path d="M201 8414 c0 -11 3 -14 6 -6 3 7 2 16 -1 19 -3 4 -6 -2 -5 -13z"/>
<path d="M174 8046 c-3 -21 -4 -39 -1 -42 2 -3 8 11 11 32 4 20 5 38 2 41 -2
3 -8 -11 -12 -31z"/>
<path d="M183 7880 c0 -25 2 -35 4 -22 2 12 2 32 0 45 -2 12 -4 2 -4 -23z"/>
<path d="M182 7790 c0 -14 2 -19 5 -12 2 6 2 18 0 25 -3 6 -5 1 -5 -13z"/>
<path d="M172 7740 c0 -14 2 -19 5 -12 2 6 2 18 0 25 -3 6 -5 1 -5 -13z"/>
<path d="M182 7660 c0 -14 2 -19 5 -12 2 6 2 18 0 25 -3 6 -5 1 -5 -13z"/>
<path d="M252 6880 c0 -14 2 -19 5 -12 2 6 2 18 0 25 -3 6 -5 1 -5 -13z"/>
<path d="M906 6770 c3 -58 9 -134 14 -170 12 -82 40 -304 44 -350 1 -19 8 -61
15 -92 7 -32 10 -66 7 -76 -4 -10 1 -36 9 -57 9 -20 15 -52 14 -69 -2 -17 0
-37 5 -44 4 -7 10 -38 13 -70 3 -31 10 -59 14 -62 4 -3 10 -30 14 -60 3 -30
10 -75 16 -100 5 -25 12 -64 16 -88 3 -23 10 -45 14 -48 5 -3 9 -20 9 -38 0
-17 4 -36 9 -41 5 -6 11 -28 14 -50 7 -51 56 -245 68 -267 5 -10 9 -31 9 -46
0 -16 7 -43 16 -60 8 -18 13 -41 9 -52 -4 -11 -2 -20 4 -20 6 0 11 -11 11 -25
0 -14 5 -25 10 -25 6 0 10 -11 10 -24 0 -14 5 -28 10 -31 6 -3 10 -21 10 -40
0 -19 5 -37 10 -40 6 -3 10 -19 10 -36 0 -16 5 -29 11 -29 13 0 11 12 -21 120
-48 165 -127 469 -160 615 -12 55 -25 114 -30 130 -5 17 -18 84 -31 150 -12
66 -27 123 -31 126 -5 3 -6 12 -3 21 3 8 -3 60 -14 114 -30 152 -101 679 -102
762 0 26 -6 76 -14 112 l-13 65 4 -105z"/>
<path d="M261 6834 c0 -11 3 -14 6 -6 3 7 2 16 -1 19 -3 4 -6 -2 -5 -13z"/>
<path d="M271 6744 c0 -11 3 -14 6 -6 3 7 2 16 -1 19 -3 4 -6 -2 -5 -13z"/>
<path d="M292 6610 c0 -14 2 -19 5 -12 2 6 2 18 0 25 -3 6 -5 1 -5 -13z"/>
<path d="M302 6545 c0 -16 2 -22 5 -12 2 9 2 23 0 30 -3 6 -5 -1 -5 -18z"/>
<path d="M330 6409 c0 -11 4 -18 10 -14 5 3 7 12 3 20 -7 21 -13 19 -13 -6z"/>
<path d="M341 6354 c0 -11 3 -14 6 -6 3 7 2 16 -1 19 -3 4 -6 -2 -5 -13z"/>
<path d="M371 6234 c0 -11 3 -14 6 -6 3 7 2 16 -1 19 -3 4 -6 -2 -5 -13z"/>
<path d="M392 6090 c0 -14 2 -19 5 -12 2 6 2 18 0 25 -3 6 -5 1 -5 -13z"/>
<path d="M401 6044 c0 -11 3 -14 6 -6 3 7 2 16 -1 19 -3 4 -6 -2 -5 -13z"/>
<path d="M431 5904 c0 -11 3 -14 6 -6 3 7 2 16 -1 19 -3 4 -6 -2 -5 -13z"/>
<path d="M556 5380 c3 -19 10 -39 15 -45 12 -12 6 21 -10 55 -10 23 -11 22 -5
-10z"/>
<path d="M575 5300 c3 -5 8 -10 11 -10 2 0 4 5 4 10 0 6 -5 10 -11 10 -5 0 -7
-4 -4 -10z"/>
<path d="M580 5275 c0 -5 5 -17 10 -25 5 -8 10 -10 10 -5 0 6 -5 17 -10 25 -5
8 -10 11 -10 5z"/>
<path d="M621 5203 c0 -12 -4 -30 -7 -40 -5 -17 -5 -17 6 0 6 10 9 28 7 40 -4
22 -4 22 -6 0z"/>
<path d="M4690 5140 c35 -11 57 -20 119 -49 45 -21 201 -177 201 -201 0 -5 4
-10 8 -10 5 0 15 -12 23 -27 16 -31 25 -45 52 -74 9 -10 17 -24 17 -30 0 -6
14 -30 30 -54 17 -24 30 -52 30 -63 0 -11 6 -24 13 -30 7 -6 24 -35 36 -64 13
-29 28 -62 34 -73 12 -23 46 -93 70 -145 29 -62 18 -12 -14 65 -18 41 -36 75
-40 75 -5 0 -9 7 -9 17 0 24 -134 286 -189 368 -25 39 -84 108 -131 155 -91
92 -164 135 -241 145 -43 5 -44 5 -9 -5z"/>
<path d="M4508 5133 c6 -2 18 -2 25 0 6 3 1 5 -13 5 -14 0 -19 -2 -12 -5z"/>
<path d="M4361 5071 l-23 -18 31 0 c21 0 27 3 19 9 -10 6 -10 10 2 18 8 5 11
10 5 10 -5 0 -21 -9 -34 -19z"/>
<path d="M4275 5000 c-10 -11 -15 -23 -11 -27 3 -4 13 3 22 15 8 12 20 20 25
17 5 -4 9 -1 9 4 0 18 -26 12 -45 -9z"/>
<path d="M664 4984 c4 -10 9 -24 10 -31 4 -22 13 -24 19 -3 3 11 1 18 -4 14
-5 -3 -9 2 -9 10 0 8 -5 18 -12 22 -8 5 -9 2 -4 -12z"/>
<path d="M4207 4931 c-20 -23 -37 -43 -37 -46 0 -3 10 -5 23 -4 12 0 16 3 9 6
-10 4 -9 9 4 24 9 10 21 16 25 13 11 -6 23 20 17 37 -2 6 -20 -7 -41 -30z"/>
<path d="M690 4906 c0 -8 5 -18 10 -21 6 -3 10 1 10 9 0 8 -4 18 -10 21 -5 3
-10 -1 -10 -9z"/>
<path d="M4123 4822 c-24 -34 -35 -62 -23 -62 5 0 10 10 12 23 2 12 13 26 26
32 23 10 28 20 14 29 -5 3 -18 -7 -29 -22z"/>
<path d="M4063 4725 c-3 -9 -3 -18 -1 -21 3 -3 8 4 11 16 6 23 -1 27 -10 5z"/>
<path d="M742 4715 c3 -5 11 -30 18 -54 6 -23 13 -41 15 -39 3 2 1 19 -4 36
-6 19 -6 34 0 37 5 4 9 12 8 18 0 8 -2 8 -6 -1 -4 -10 -8 -10 -21 0 -9 7 -13
9 -10 3z"/>
<path d="M4006 4619 c-10 -17 -16 -33 -13 -36 3 -3 13 9 22 27 9 18 15 34 13
36 -2 2 -12 -10 -22 -27z"/>
<path d="M1341 4613 c-1 -6 -4 -19 -8 -29 -4 -11 -3 -15 5 -11 6 4 13 -1 15
-10 4 -15 5 -15 5 2 1 21 -16 68 -17 48z"/>
<path d="M3974 4559 c-3 -6 -1 -16 5 -22 8 -8 11 -5 11 11 0 24 -5 28 -16 11z"/>
<path d="M1371 4514 c0 -11 3 -14 6 -6 3 7 2 16 -1 19 -3 4 -6 -2 -5 -13z"/>
<path d="M3942 4478 c-28 -70 -29 -80 -13 -85 9 -4 11 0 6 16 -4 12 -2 27 3
34 5 7 12 25 16 40 4 15 11 25 16 22 6 -3 7 1 4 9 -3 9 -7 16 -9 16 -1 0 -12
-24 -23 -52z"/>
<path d="M1385 4444 c2 -27 4 -53 4 -57 1 -5 6 -5 11 -2 6 3 10 -3 10 -14 0
-11 5 -23 10 -26 6 -3 10 -15 10 -26 0 -10 5 -19 11 -19 6 0 8 7 5 16 -4 9
-18 51 -32 93 -14 42 -27 78 -29 80 -2 2 -3 -18 0 -45z"/>
<path d="M827 4449 c4 -13 8 -18 11 -10 2 7 -1 18 -6 23 -8 8 -9 4 -5 -13z"/>
<path d="M4594 4354 c-18 -14 -18 -15 6 -8 14 4 43 11 65 15 l40 6 -46 2 c-27
1 -53 -5 -65 -15z"/>
<path d="M4549 4325 c-8 -9 -22 -24 -31 -33 -10 -9 -18 -24 -18 -33 0 -10 -5
-19 -11 -21 -15 -5 -58 -137 -59 -180 0 -21 -4 -38 -10 -38 -6 0 -10 -27 -9
-62 l1 -63 19 75 c10 41 26 107 35 145 19 78 56 163 86 195 11 12 18 24 15 26
-3 3 -11 -2 -18 -11z"/>
<path d="M3880 4305 c0 -8 2 -15 4 -15 2 0 6 7 10 15 3 8 1 15 -4 15 -6 0 -10
-7 -10 -15z"/>
<path d="M911 4284 c0 -11 3 -14 6 -6 3 7 2 16 -1 19 -3 4 -6 -2 -5 -13z"/>
<path d="M1451 4263 c-1 -18 4 -33 10 -33 6 0 8 -9 4 -20 -4 -12 -2 -20 5 -20
7 0 9 -8 5 -21 -6 -19 -5 -20 7 -8 13 11 12 19 -2 59 -10 25 -20 52 -23 60 -3
8 -6 0 -6 -17z"/>
<path d="M4851 4263 c7 -12 15 -20 18 -17 3 2 -3 12 -13 22 -17 16 -18 16 -5
-5z"/>
<path d="M5350 4268 c0 -6 24 -67 45 -113 7 -16 19 -49 27 -72 7 -24 16 -43
20 -43 5 0 8 -6 8 -14 0 -8 4 -17 10 -21 9 -6 -7 51 -20 70 -4 6 -20 44 -35
85 -25 66 -55 126 -55 108z"/>
<path d="M914 4243 c-12 -19 2 -83 18 -83 5 0 4 10 -3 21 -6 12 -8 34 -5 50 6
34 5 35 -10 12z"/>
<path d="M3850 4205 c-6 -15 -8 -30 -6 -33 3 -3 10 8 16 23 6 15 8 30 6 33 -3
3 -10 -8 -16 -23z"/>
<path d="M1511 4110 c0 -8 4 -22 9 -30 12 -18 12 -2 0 25 -6 13 -9 15 -9 5z"/>
<path d="M951 4084 c0 -11 3 -14 6 -6 3 7 2 16 -1 19 -3 4 -6 -2 -5 -13z"/>
<path d="M1527 4046 c-10 -24 -10 -24 14 -36 18 -10 19 -9 11 7 -5 10 -11 25
-14 32 -3 12 -6 11 -11 -3z"/>
<path d="M991 3984 c0 -11 3 -14 6 -6 3 7 2 16 -1 19 -3 4 -6 -2 -5 -13z"/>
<path d="M4990 3982 c6 -13 14 -21 18 -18 3 4 -2 14 -12 24 -18 16 -18 16 -6
-6z"/>
<path d="M5451 3974 c0 -11 3 -14 6 -6 3 7 2 16 -1 19 -3 4 -6 -2 -5 -13z"/>
<path d="M1565 3940 c7 -36 33 -85 41 -77 7 7 -7 37 -17 37 -5 0 -9 10 -9 23
0 12 -5 29 -11 37 -7 11 -8 6 -4 -20z"/>
<path d="M5477 3963 c-4 -3 -7 -13 -7 -22 1 -13 3 -13 11 2 11 19 8 33 -4 20z"/>
<path d="M5015 3939 c-4 -6 -5 -12 -2 -15 2 -3 7 2 10 11 7 17 1 20 -8 4z"/>
<path d="M5490 3929 c0 -4 7 -20 15 -35 8 -16 15 -22 15 -13 0 14 -29 61 -30
48z"/>
<path d="M4393 3875 c-13 -26 -21 -59 -29 -126 -4 -30 -10 -64 -15 -77 -5 -13
-9 -41 -9 -63 0 -22 -7 -53 -15 -69 -9 -17 -20 -63 -25 -102 -6 -40 -15 -93
-20 -118 -5 -25 -9 -63 -10 -85 0 -27 -3 -36 -9 -26 -6 9 -9 -5 -10 -40 0 -30
-5 -70 -11 -89 -5 -19 -9 -60 -9 -90 2 -64 -3 -86 47 200 17 96 33 189 36 205
21 120 36 195 78 382 20 93 21 136 1 98z"/>
<path d="M5518 3854 c-3 -3 5 -27 18 -54 13 -27 21 -56 18 -65 -3 -8 -1 -15 5
-15 6 0 11 -9 11 -19 0 -11 5 -23 10 -26 6 -3 10 -15 10 -26 0 -10 4 -19 9
-19 5 0 11 -12 13 -27 2 -16 8 -27 14 -26 7 1 15 -14 19 -33 3 -20 15 -53 26
-74 14 -26 18 -47 13 -62 -6 -20 -5 -21 10 -9 14 12 16 11 16 -6 0 -10 4 -23
8 -29 4 -5 16 -35 27 -66 10 -32 22 -58 27 -58 4 0 8 3 8 6 0 7 -152 377 -180
439 -39 87 -62 141 -64 152 -3 16 -11 24 -18 17z"/>
<path d="M1611 3835 c-1 -21 15 -53 22 -45 2 3 -2 19 -9 35 -10 23 -13 25 -13
10z"/>
<path d="M3775 3840 c3 -5 8 -10 11 -10 2 0 4 5 4 10 0 6 -5 10 -11 10 -5 0
-7 -4 -4 -10z"/>
<path d="M1645 3735 c4 -22 10 -42 15 -45 8 -6 25 -51 22 -62 -1 -3 5 -12 13
-18 8 -7 15 -23 15 -37 0 -13 7 -31 15 -39 9 -9 15 -11 15 -4 0 12 -89 232
-97 240 -3 3 -2 -13 2 -35z"/>
<path d="M5160 3636 c0 -8 4 -17 9 -20 5 -4 7 3 4 14 -6 23 -13 26 -13 6z"/>
<path d="M3732 3545 c0 -16 2 -22 5 -12 2 9 2 23 0 30 -3 6 -5 -1 -5 -18z"/>
<path d="M1171 3500 c0 -8 4 -22 9 -30 12 -18 12 -2 0 25 -6 13 -9 15 -9 5z"/>
<path d="M3723 3480 c4 -16 2 -32 -3 -35 -6 -3 -10 -10 -10 -15 0 -5 10 1 23
13 12 12 19 24 15 25 -5 2 -8 12 -8 23 0 10 -5 19 -11 19 -7 0 -9 -11 -6 -30z"/>
<path d="M1755 3483 c4 -10 10 -29 13 -43 3 -14 14 -40 24 -58 10 -18 18 -39
18 -47 0 -8 5 -15 11 -15 12 0 13 -2 -31 104 -18 42 -34 76 -37 76 -3 0 -2 -8
2 -17z"/>
<path d="M5245 3459 c10 -35 23 -45 18 -15 -3 15 -10 29 -15 32 -6 4 -7 -2 -3
-17z"/>
<path d="M1221 3369 c11 -30 22 -60 25 -68 2 -8 6 -12 9 -10 6 6 -31 109 -43
121 -6 6 -2 -13 9 -43z"/>
<path d="M5300 3345 c0 -5 5 -17 10 -25 5 -8 10 -10 10 -5 0 6 -5 17 -10 25
-5 8 -10 11 -10 5z"/>
<path d="M3697 3265 c-4 -8 -2 -17 3 -20 6 -4 10 3 10 14 0 25 -6 27 -13 6z"/>
<path d="M1260 3261 c0 -5 5 -13 10 -16 6 -3 10 -2 10 4 0 5 -4 13 -10 16 -5
3 -10 2 -10 -4z"/>
<path d="M1860 3235 c11 -21 23 -54 26 -72 3 -18 10 -30 15 -27 11 6 -25 102
-46 123 -10 11 -9 3 5 -24z"/>
<path d="M5781 3224 c-1 -11 17 -60 39 -109 5 -11 12 -39 15 -62 4 -24 11 -43
17 -43 5 0 8 -6 6 -12 -3 -7 1 -19 9 -26 7 -7 13 -24 13 -37 0 -13 4 -26 9
-30 5 -3 21 -31 35 -62 15 -31 29 -54 32 -51 3 3 -9 36 -25 73 -17 37 -31 72
-31 76 0 5 -11 32 -24 61 -13 29 -27 64 -31 78 -14 50 -63 161 -64 144z"/>
<path d="M1910 3111 c0 -5 5 -13 10 -16 6 -3 10 -2 10 4 0 5 -4 13 -10 16 -5
3 -10 2 -10 -4z"/>
<path d="M5418 3091 c9 -16 18 -28 20 -27 6 7 -18 56 -27 56 -6 0 -2 -13 7
-29z"/>
<path d="M1930 3079 c0 -15 50 -118 62 -125 9 -6 8 0 -3 16 -9 14 -19 36 -22
50 -6 24 -36 72 -37 59z"/>
<path d="M5460 3025 c0 -23 16 -52 25 -44 3 3 -1 19 -10 35 -12 23 -15 25 -15
9z"/>
<path d="M1376 2995 c4 -8 8 -15 10 -15 2 0 4 7 4 15 0 8 -4 15 -10 15 -5 0
-7 -7 -4 -15z"/>
<path d="M3662 2940 c0 -14 2 -19 5 -12 2 6 2 18 0 25 -3 6 -5 1 -5 -13z"/>
<path d="M4220 2917 c0 -9 -5 -17 -11 -17 -6 0 -9 -7 -5 -15 3 -8 2 -15 -2
-15 -4 0 -8 -28 -9 -62 -1 -34 -7 -74 -12 -88 -19 -50 -44 -221 -35 -230 6 -6
16 29 27 98 10 59 22 125 27 147 17 79 32 186 26 192 -3 4 -6 -1 -6 -10z"/>
<path d="M2010 2908 c0 -9 5 -20 10 -23 13 -8 13 5 0 25 -8 13 -10 13 -10 -2z"/>
<path d="M3660 2845 c0 -32 2 -56 4 -54 8 7 10 98 3 105 -4 4 -7 -19 -7 -51z"/>
<path d="M7320 2832 c-25 -31 -47 -61 -49 -66 -2 -6 -8 -17 -14 -24 -6 -8 -12
-23 -14 -35 -3 -19 -69 -108 -86 -115 -4 -2 -26 -32 -49 -65 -23 -34 -45 -63
-50 -65 -4 -2 -8 -8 -8 -14 0 -15 -47 -68 -54 -61 -3 4 -6 1 -6 -6 0 -6 -9
-21 -20 -33 -10 -12 -17 -25 -14 -30 4 -5 13 0 21 12 8 11 24 31 36 44 79 82
369 499 356 510 -2 2 -24 -22 -49 -52z"/>
<path d="M2035 2855 c4 -11 10 -28 12 -37 3 -10 9 -18 14 -18 5 0 3 12 -3 28
-14 33 -35 57 -23 27z"/>
<path d="M1457 2809 c4 -13 8 -18 11 -10 2 7 -1 18 -6 23 -8 8 -9 4 -5 -13z"/>
<path d="M2075 2760 c4 -14 11 -27 15 -30 4 -3 15 -31 25 -62 9 -31 26 -66 36
-77 10 -10 27 -45 37 -76 11 -31 24 -61 31 -68 6 -6 11 -17 11 -24 0 -6 11
-29 25 -49 14 -21 28 -48 31 -61 4 -13 10 -23 15 -23 5 0 9 -4 9 -10 0 -5 -7
-10 -16 -10 -8 0 -12 -5 -9 -11 4 -6 13 -8 20 -5 8 3 28 -27 55 -80 24 -46 47
-84 52 -84 13 0 11 5 -40 97 -48 85 -207 407 -252 508 -13 28 -29 59 -37 70
-14 19 -15 19 -8 -5z"/>
<path d="M5960 2774 c0 -6 9 -23 20 -37 11 -14 20 -29 20 -35 0 -5 9 -21 20
-35 12 -15 21 -30 21 -34 0 -17 147 -174 178 -191 31 -16 38 -10 8 8 -12 7
-49 43 -82 81 -33 38 -66 76 -72 83 -7 8 -13 17 -13 21 0 3 -11 21 -25 39 -14
18 -25 37 -25 42 -1 14 -50 71 -50 58z"/>
<path d="M5610 2752 c0 -5 6 -17 14 -27 13 -18 14 -18 9 8 -5 24 -23 39 -23
19z"/>
<path d="M7220 2720 c0 -5 5 -10 11 -10 5 0 7 5 4 10 -3 6 -8 10 -11 10 -2 0
-4 -4 -4 -10z"/>
<path d="M5657 2703 c-4 -3 -7 -11 -7 -17 0 -6 5 -5 12 2 6 6 9 14 7 17 -3 3
-9 2 -12 -2z"/>
<path d="M7194 2699 c-4 -7 -3 -9 4 -5 5 3 13 0 15 -6 4 -9 6 -10 6 -1 1 17
-16 25 -25 12z"/>
<path d="M7155 2670 c-16 -17 -16 -20 -3 -15 9 4 19 13 22 21 7 19 2 18 -19
-6z"/>
<path d="M5665 2670 c-3 -5 -1 -10 4 -10 6 0 11 5 11 10 0 6 -2 10 -4 10 -3 0
-8 -4 -11 -10z"/>
<path d="M7112 2630 c-8 -13 -8 -20 -2 -20 6 0 13 7 17 15 9 24 -1 27 -15 5z"/>
<path d="M5701 2603 c7 -12 15 -20 18 -17 3 2 -3 12 -13 22 -17 16 -18 16 -5
-5z"/>
<path d="M5734 2577 c-9 -9 -4 -22 19 -50 16 -21 31 -36 34 -34 2 3 -7 17 -22
33 -16 17 -23 34 -19 46 6 21 4 22 -12 5z"/>
<path d="M7026 2553 c-6 -14 -5 -15 5 -6 7 7 10 15 7 18 -3 3 -9 -2 -12 -12z"/>
<path d="M1622 2460 c0 -14 2 -19 5 -12 2 6 2 18 0 25 -3 6 -5 1 -5 -13z"/>
<path d="M4127 2460 c3 -11 1 -32 -5 -48 -6 -15 -14 -57 -17 -95 -4 -37 -10
-65 -15 -62 -4 3 -10 -21 -13 -52 -5 -71 -25 -193 -34 -213 -3 -8 -7 -24 -9
-35 -3 -25 -11 -59 -23 -99 -5 -17 -12 -62 -15 -101 l-6 -70 15 50 c13 45 44
194 80 380 7 39 18 97 24 130 42 218 44 235 21 235 -4 0 -6 -9 -3 -20z"/>
<path d="M6900 2465 c-11 -13 -10 -14 4 -9 9 3 16 10 16 15 0 13 -6 11 -20 -6z"/>
<path d="M3612 2425 c0 -16 2 -22 5 -12 2 9 2 23 0 30 -3 6 -5 -1 -5 -18z"/>
<path d="M6850 2435 c-11 -13 -10 -14 4 -9 9 3 16 10 16 15 0 13 -6 11 -20 -6z"/>
<path d="M6280 2400 c0 -5 5 -10 10 -10 6 0 10 5 10 10 0 6 -4 10 -10 10 -5 0
-10 -4 -10 -10z"/>
<path d="M6361 2366 c2 -2 15 -9 29 -15 24 -11 24 -11 6 3 -16 13 -49 24 -35
12z"/>
<path d="M6903 2270 c-34 -39 -44 -62 -18 -40 19 16 59 70 54 74 -2 1 -19 -14
-36 -34z"/>
<path d="M5985 2240 c3 -5 11 -10 16 -10 6 0 7 5 4 10 -3 6 -11 10 -16 10 -6
0 -7 -4 -4 -10z"/>
<path d="M6840 2220 c0 -5 5 -10 10 -10 6 0 10 5 10 10 0 6 -4 10 -10 10 -5 0
-10 -4 -10 -10z"/>
<path d="M6820 2190 c-8 -5 -12 -12 -9 -15 4 -3 12 1 19 10 14 17 11 19 -10 5z"/>
<path d="M6050 2186 c0 -2 8 -10 18 -17 15 -13 16 -12 3 4 -13 16 -21 21 -21
13z"/>
<path d="M6705 2114 c-83 -50 -107 -60 -189 -78 -50 -12 -21 -16 35 -6 58 11
103 32 189 88 68 44 64 41 59 46 -2 2 -44 -20 -94 -50z"/>
<path d="M6100 2153 c0 -6 8 -17 18 -24 16 -13 16 -13 2 6 -8 11 -16 22 -17
24 -2 2 -3 0 -3 -6z"/>
<path d="M3563 2075 c-3 -9 -3 -18 -1 -21 3 -3 8 4 11 16 6 23 -1 27 -10 5z"/>
<path d="M2420 2066 c0 -8 6 -21 13 -28 8 -7 17 -20 20 -28 4 -8 5 -2 2 14 -7
33 -35 68 -35 42z"/>
<path d="M6215 2070 c3 -5 8 -10 11 -10 2 0 4 5 4 10 0 6 -5 10 -11 10 -5 0
-7 -4 -4 -10z"/>
<path d="M6260 2055 c0 -3 16 -11 35 -19 44 -19 175 -32 175 -18 0 5 -26 12
-57 16 -83 8 -102 11 -109 19 -8 8 -44 10 -44 2z"/>
<path d="M2470 1997 c0 -13 41 -89 46 -84 2 2 -7 24 -21 48 -13 24 -25 40 -25
36z"/>
<path d="M3542 1940 c0 -19 2 -27 5 -17 2 9 2 25 0 35 -3 9 -5 1 -5 -18z"/>
<path d="M1890 1884 c0 -13 18 -39 24 -34 2 3 -2 14 -10 24 -8 11 -14 16 -14
10z"/>
<path d="M2530 1888 c0 -3 15 -32 34 -64 19 -33 43 -75 53 -94 9 -19 23 -41
31 -50 35 -41 62 -79 62 -88 0 -5 7 -12 15 -16 9 -3 12 -12 9 -23 -5 -17 -5
-17 6 -1 8 14 7 23 -6 43 -9 14 -20 25 -25 25 -5 0 -9 5 -9 11 0 6 -25 47 -55
90 -30 43 -55 82 -55 86 -1 9 -60 89 -60 81z"/>
<path d="M1941 1774 c0 -11 3 -14 6 -6 3 7 2 16 -1 19 -3 4 -6 -2 -5 -13z"/>
<path d="M3487 1741 c-4 -17 -3 -21 5 -13 5 5 8 16 6 23 -3 8 -7 3 -11 -10z"/>
<path d="M3970 1655 c0 -14 -9 -60 -19 -103 -30 -120 -32 -132 -22 -132 4 0
18 46 29 103 28 140 31 157 21 157 -5 0 -9 -11 -9 -25z"/>
<path d="M2010 1630 c0 -5 5 -10 11 -10 5 0 7 5 4 10 -3 6 -8 10 -11 10 -2 0
-4 -4 -4 -10z"/>
<path d="M2756 1535 c-3 -9 -2 -13 4 -10 6 3 10 2 10 -3 0 -4 8 -17 18 -28 10
-10 25 -30 35 -44 11 -15 17 -19 17 -10 0 9 -10 26 -23 40 -12 14 -30 35 -39
48 -13 19 -16 20 -22 7z"/>
<path d="M2090 1483 c0 -15 45 -103 52 -103 5 0 8 5 8 10 0 6 -4 10 -9 10 -9
0 -24 38 -22 53 1 4 -5 15 -14 23 -8 9 -15 12 -15 7z"/>
<path d="M3385 1459 c-4 -6 -5 -12 -2 -15 2 -3 7 2 10 11 7 17 1 20 -8 4z"/>
<path d="M2850 1424 c0 -5 9 -17 20 -27 11 -9 20 -13 20 -8 0 4 -9 16 -20 26
-11 10 -20 14 -20 9z"/>
<path d="M3896 1353 c-3 -21 -6 -47 -5 -58 l0 -20 8 20 c14 36 22 95 13 95 -5
0 -12 -17 -16 -37z"/>
<path d="M2917 1350 c10 -11 22 -20 27 -20 5 0 1 9 -9 20 -10 11 -22 20 -26
20 -5 0 -1 -9 8 -20z"/>
<path d="M2180 1311 c0 -6 4 -13 10 -16 6 -3 7 1 4 9 -7 18 -14 21 -14 7z"/>
<path d="M2964 1311 c4 -6 16 -16 28 -22 15 -8 18 -8 14 0 -4 6 -16 16 -28 22
-15 8 -18 8 -14 0z"/>
<path d="M2218 1243 c21 -47 39 -67 47 -53 3 5 2 10 -3 10 -4 0 -18 18 -31 40
-28 50 -36 52 -13 3z"/>
<path d="M3877 1257 c-4 -10 -7 -28 -8 -40 0 -21 -1 -21 -10 -2 -7 15 -8 11
-5 -17 3 -21 1 -40 -4 -43 -8 -5 -42 -108 -56 -170 -4 -16 -10 -34 -14 -40
-13 -18 -19 -56 -8 -53 13 5 120 346 115 368 -2 12 -4 11 -10 -3z"/>
<path d="M3078 1243 c7 -3 16 -2 19 1 4 3 -2 6 -13 5 -11 0 -14 -3 -6 -6z"/>
<path d="M2260 1161 c0 -5 5 -13 10 -16 6 -3 10 -2 10 4 0 5 -4 13 -10 16 -5
3 -10 2 -10 -4z"/>
<path d="M2310 1091 c0 -6 4 -13 10 -16 6 -3 7 1 4 9 -7 18 -14 21 -14 7z"/>
<path d="M2372 985 c11 -20 23 -34 25 -31 6 6 -29 66 -39 66 -4 0 2 -16 14
-35z"/>
<path d="M2442 884 c18 -25 36 -48 40 -50 15 -9 8 13 -7 26 -9 7 -14 18 -12
24 2 6 -5 19 -16 29 -36 31 -39 18 -5 -29z"/>
<path d="M3722 795 c-18 -47 -32 -92 -32 -101 0 -8 -4 -13 -9 -9 -5 3 -15 -11
-22 -30 -7 -19 -17 -35 -22 -35 -5 0 -7 -7 -4 -15 4 -8 2 -17 -4 -20 -5 -4
-16 -21 -24 -38 -15 -33 -27 -53 -58 -100 -31 -48 -13 -40 25 11 42 56 146
266 183 373 17 48 17 49 7 49 -4 0 -22 -38 -40 -85z"/>
<path d="M2500 812 c0 -19 42 -72 52 -66 5 3 1 13 -10 22 -10 10 -24 26 -30
37 -6 11 -12 14 -12 7z"/>
<path d="M2585 690 c3 -5 8 -10 11 -10 2 0 4 5 4 10 0 6 -5 10 -11 10 -5 0 -7
-4 -4 -10z"/>
<path d="M2610 656 c0 -2 8 -10 18 -17 15 -13 16 -12 3 4 -13 16 -21 21 -21
13z"/>
<path d="M2694 569 c-3 -6 -2 -15 3 -20 5 -5 9 -1 10 11 2 22 -2 25 -13 9z"/>
<path d="M2728 523 c7 -3 16 -2 19 1 4 3 -2 6 -13 5 -11 0 -14 -3 -6 -6z"/>
<path d="M2753 516 c-9 -11 -5 -20 20 -42 17 -16 24 -19 14 -8 -10 12 -15 24
-10 26 4 3 2 3 -5 1 -9 -2 -11 3 -7 17 7 23 5 25 -12 6z"/>
<path d="M2810 443 c1 -5 19 -26 41 -48 22 -22 37 -32 33 -22 -5 13 -2 16 10
11 9 -3 13 -10 10 -16 -7 -11 34 -58 50 -58 6 0 -1 11 -16 24 -17 15 -23 27
-17 33 7 7 -1 15 -20 23 -17 7 -28 17 -24 23 4 6 0 8 -10 4 -12 -4 -14 -2 -10
10 5 12 2 15 -10 10 -9 -3 -17 -2 -17 3 0 6 -4 10 -10 10 -5 0 -10 -3 -10 -7z"/>
<path d="M3489 374 c-62 -66 -102 -103 -113 -101 -6 1 -10 -4 -8 -11 1 -8 -2
-11 -8 -7 -6 4 -16 2 -23 -3 -23 -20 -104 -35 -124 -23 -12 6 -32 7 -49 2 -24
-6 -25 -8 -10 -14 10 -4 25 -2 32 4 10 8 14 8 14 0 0 -31 145 6 204 52 63 50
135 127 119 127 -6 0 -21 -12 -34 -26z"/>
<path d="M2980 290 c0 -10 14 -14 39 -11 8 2 10 -2 5 -10 -4 -8 -3 -10 4 -5 7
4 12 4 12 -1 0 -10 59 -37 66 -31 2 3 -8 11 -24 19 -15 7 -38 21 -51 31 -26
20 -51 24 -51 8z"/>
</g>
</svg>
