<?xml version="1.0" standalone="no"?>
<!DOCTYPE svg PUBLIC "-//W3C//DTD SVG 20010904//EN"
 "http://www.w3.org/TR/2001/REC-SVG-20010904/DTD/svg10.dtd">
<svg version="1.0" xmlns="http://www.w3.org/2000/svg"
 width="828.000000pt" height="828.000000pt" viewBox="0 0 828.000000 828.000000"
 preserveAspectRatio="xMidYMid meet">

<g transform="translate(0.000000,828.000000) scale(0.100000,-0.100000)"
fill="#000000" stroke="none">
<path d="M7222 6138 c-5 -7 -13 -28 -17 -46 -4 -18 -34 -74 -68 -125 -74 -111
-107 -172 -107 -198 0 -23 9 -24 38 -3 15 10 21 22 17 34 -4 12 18 58 66 137
92 150 112 190 104 203 -8 13 -20 13 -33 -2z"/>
<path d="M3207 6133 c-9 -2 -15 -9 -12 -14 3 -5 -2 -6 -11 -2 -13 5 -16 3 -11
-10 4 -11 2 -14 -8 -11 -8 3 -27 -7 -42 -22 l-28 -27 27 16 c31 19 38 21 38 8
0 -9 -43 -24 -70 -25 -10 -1 -16 -13 -17 -36 l-1 -35 8 35 c7 30 8 28 4 -15
-7 -78 -5 -110 6 -113 5 -2 10 -9 10 -15 -1 -7 -9 -2 -19 11 -24 28 -34 28
-26 1 5 -13 2 -25 -6 -29 -7 -5 -13 -16 -14 -27 -2 -17 -6 -31 -22 -70 -4 -10
-7 -32 -8 -49 -1 -17 -5 -44 -9 -60 -7 -28 -7 -28 9 -9 14 19 15 19 4 -7 -7
-16 -16 -28 -20 -28 -12 0 -39 -61 -32 -73 3 -5 2 -7 -3 -4 -6 3 -15 -3 -22
-14 -7 -11 -8 -19 -2 -19 5 0 10 -7 10 -15 0 -18 -20 -20 -20 -2 -1 6 -7 1
-14 -12 -7 -13 -11 -32 -8 -43 5 -19 -14 -26 -20 -7 -2 6 -22 -24 -43 -67 -22
-44 -46 -85 -53 -93 -10 -10 -10 -16 -1 -27 7 -8 9 -18 5 -21 -4 -4 -11 -1
-16 7 -7 11 -12 7 -22 -16 -7 -16 -18 -35 -25 -42 -7 -7 -31 -43 -52 -80 -22
-37 -51 -82 -65 -101 -14 -19 -26 -45 -26 -57 0 -14 -8 -24 -21 -27 -16 -4
-20 -11 -16 -27 4 -16 2 -20 -9 -16 -8 3 -14 1 -14 -4 0 -5 -21 -40 -46 -77
-25 -37 -50 -78 -55 -90 -5 -13 -13 -23 -18 -23 -6 0 -8 -7 -5 -15 4 -8 1 -15
-7 -15 -7 0 -10 -3 -6 -6 3 -4 -1 -13 -9 -22 -10 -9 -12 -17 -5 -21 12 -8 -2
-34 -15 -29 -5 1 -10 -9 -12 -24 -2 -16 -7 -28 -12 -28 -5 0 -19 -18 -30 -40
-11 -22 -16 -40 -11 -40 6 0 8 -7 4 -16 -4 -12 -8 -13 -14 -3 -5 9 -10 4 -15
-17 -4 -16 -15 -40 -24 -54 -28 -41 -59 -110 -49 -110 6 0 -1 -12 -15 -27 -18
-19 -22 -31 -16 -43 5 -10 6 -20 2 -24 -3 -4 0 -11 8 -16 11 -7 12 -12 3 -21
-9 -9 -13 -5 -18 17 -12 52 -15 50 -10 -6 4 -32 12 -60 21 -66 12 -9 12 -13 2
-17 -7 -2 -11 -7 -8 -9 3 -3 45 4 93 16 49 11 85 24 81 29 -4 4 -2 7 4 7 7 0
12 6 12 13 0 16 64 77 80 77 5 0 10 5 10 10 0 6 -6 10 -12 10 -9 0 -9 3 -2 8
6 4 7 17 3 32 -4 14 -7 20 -8 14 -1 -6 -16 -14 -33 -17 -18 -3 -41 -8 -50 -12
-14 -6 -18 -2 -18 17 0 13 6 33 14 44 8 11 23 41 32 65 10 24 21 46 24 49 4 3
29 48 57 100 27 52 60 112 72 133 13 24 19 47 16 60 -5 18 -4 19 4 7 10 -13
12 -13 21 0 6 9 6 18 0 24 -13 13 -13 36 0 36 6 0 10 -8 10 -17 0 -13 6 -9 18
12 52 86 75 128 67 123 -6 -3 -11 10 -12 30 -1 34 0 33 13 -8 6 -18 44 37 44
65 0 17 2 17 10 5 9 -13 10 -13 10 1 0 8 13 33 29 55 64 88 182 319 175 341
-4 13 -3 14 3 5 7 -9 23 14 58 82 26 53 51 97 54 98 4 2 21 27 40 56 18 29 40
56 48 60 18 11 86 190 80 214 -3 9 1 22 9 29 8 6 14 20 14 30 0 15 36 122 64
190 14 34 -32 56 -87 42z m38 -123 c-4 -12 -9 -19 -12 -17 -3 3 -2 15 2 27 4
12 9 19 12 17 3 -3 2 -15 -2 -27z m-138 -72 c-3 -8 -6 -5 -6 6 -1 11 2 17 5
13 3 -3 4 -12 1 -19z m30 -175 c-3 -10 -5 -4 -5 12 0 17 2 24 5 18 2 -7 2 -21
0 -30z m-10 -105 c-3 -8 -6 -5 -6 6 -1 11 2 17 5 13 3 -3 4 -12 1 -19z m-74
-33 c-3 -9 -8 -14 -10 -11 -3 3 -2 9 2 15 9 16 15 13 8 -4z m-200 -320 c-7
-21 -13 -19 -13 6 0 11 4 18 10 14 5 -3 7 -12 3 -20z m-36 -137 c-3 -7 -5 -2
-5 12 0 14 2 19 5 13 2 -7 2 -19 0 -25z m-62 -142 c-16 -34 -35 -48 -35 -26 0
13 42 71 48 66 2 -3 -4 -20 -13 -40z m-75 -34 c0 -5 -11 -18 -25 -30 -27 -23
-33 -14 -13 18 13 20 38 28 38 12z m-110 -178 c-12 -22 -18 -28 -14 -14 4 14
8 34 9 45 3 29 4 30 15 19 7 -7 3 -23 -10 -50z m-39 -17 c-8 -8 -11 -7 -11 4
0 20 13 34 18 19 3 -7 -1 -17 -7 -23z m79 -11 c0 -8 -4 -18 -10 -21 -5 -3 -10
3 -10 14 0 12 5 21 10 21 6 0 10 -6 10 -14z m-140 -130 c0 -3 -4 -8 -10 -11
-5 -3 -10 -1 -10 4 0 6 5 11 10 11 6 0 10 -2 10 -4z m-59 -149 c-8 -8 -11 -6
-11 7 0 16 -2 17 -17 5 -15 -13 -15 -12 -3 7 12 19 15 20 28 7 11 -11 12 -17
3 -26z m-45 -139 c-7 -34 -13 -44 -21 -36 -9 8 7 68 18 68 5 0 7 -13 3 -32z
m-67 -28 c-6 -16 -15 -27 -20 -24 -5 3 -8 8 -6 12 2 4 7 15 10 25 4 9 11 17
16 17 6 0 6 -11 0 -30z m-77 -92 c-8 -8 -9 -4 -5 13 4 13 8 18 11 10 2 -7 -1
-18 -6 -23z m93 10 c-19 -11 -30 -5 -21 11 4 6 14 7 22 4 15 -5 14 -7 -1 -15z
m92 -93 c-4 -8 -18 -15 -34 -15 l-28 0 30 19 c33 20 40 19 32 -4z m-167 -56
c0 -16 -4 -29 -10 -29 -5 0 -10 16 -10 36 0 21 4 33 10 29 6 -3 10 -19 10 -36z
m81 -6 c1 -17 2 -17 6 0 3 9 14 17 26 17 15 0 18 -3 9 -8 -6 -5 -18 -16 -25
-26 -12 -17 -14 -16 -25 8 -7 16 -8 26 -2 26 6 0 11 -8 11 -17z m-84 -79 c-3
-3 -12 -4 -19 -1 -8 3 -5 6 6 6 11 1 17 -2 13 -5z"/>
<path d="M4312 6078 c-7 -7 -12 -16 -12 -20 0 -4 -39 -66 -86 -137 -51 -76
-84 -137 -82 -148 5 -27 63 -18 117 18 24 17 45 28 47 26 3 -2 0 -16 -6 -31
-13 -34 6 -44 47 -23 42 22 143 132 143 156 0 27 -20 27 -93 2 l-57 -20 0 21
c0 18 -4 20 -35 15 -19 -3 -35 -3 -35 1 0 4 18 34 40 67 39 57 49 85 32 85 -4
0 -13 -5 -20 -12z m-12 -173 c0 -22 -33 -76 -64 -103 -43 -37 -76 -42 -76 -12
0 27 93 120 120 120 11 0 20 -2 20 -5z m146 -6 c3 -6 -19 -35 -52 -66 -62 -59
-78 -57 -49 8 12 25 27 42 42 45 12 4 23 10 23 15 0 13 27 11 36 -2z"/>
<path d="M5945 6069 c-11 -7 -23 -17 -27 -23 -24 -34 16 -126 42 -99 9 8 8 19
-6 43 -19 31 -19 32 0 46 67 48 223 -44 242 -142 6 -33 3 -40 -19 -60 -16 -13
-58 -29 -102 -39 -100 -23 -111 -13 -59 52 73 89 94 122 84 128 -13 8 -52 -34
-105 -109 -49 -71 -68 -83 -100 -62 -27 18 -65 21 -65 7 0 -5 21 -24 46 -41
33 -22 50 -28 57 -21 6 6 39 11 73 11 69 0 130 18 188 57 33 21 38 22 31 7
-17 -39 -11 -69 13 -72 25 -4 132 44 132 58 0 10 -59 -7 -74 -21 -14 -12 -43
-11 -51 1 -12 19 16 40 52 40 26 0 43 8 69 34 41 41 46 76 11 76 -23 0 -98
-47 -112 -69 -12 -20 -25 -11 -25 17 0 41 -51 112 -110 151 -40 28 -63 36
-108 38 -32 2 -66 -2 -77 -8z m425 -166 c0 -12 -33 -43 -47 -43 -19 0 -16 27
5 39 20 12 42 14 42 4z"/>
<path d="M3872 6058 c-7 -7 -12 -19 -12 -26 0 -8 -29 -58 -64 -112 -74 -113
-100 -159 -91 -168 3 -3 31 0 63 7 100 23 131 25 138 7 9 -24 33 -19 94 18 57
36 77 38 60 6 -22 -42 -7 -52 31 -20 19 16 21 21 10 29 -11 7 -9 14 9 38 17
24 20 37 15 67 -4 20 -11 39 -16 42 -14 8 -70 -26 -123 -76 -47 -44 -56 -48
-116 -55 -36 -3 -73 -9 -82 -11 -31 -9 -20 18 52 126 39 58 70 113 70 122 0
21 -20 24 -38 6z m208 -167 c0 -19 -71 -91 -90 -91 -22 0 -8 36 27 72 41 42
63 48 63 19z"/>
<path d="M5055 6062 c-6 -4 -27 -33 -47 -64 -21 -32 -51 -64 -68 -73 -29 -15
-34 -25 -31 -52 1 -7 -10 -30 -24 -50 -33 -49 -32 -65 3 -61 22 2 26 7 24 25
-2 13 10 42 27 67 28 40 36 45 81 51 28 4 54 4 57 1 3 -3 -6 -33 -21 -66 -27
-59 -29 -90 -6 -90 20 0 97 59 133 100 64 75 54 103 -29 80 -38 -11 -47 -11
-54 0 -5 9 -20 11 -45 7 -49 -8 -53 9 -15 67 30 43 37 74 15 58z m135 -164 c0
-17 -91 -108 -107 -108 -17 0 -17 4 8 52 11 22 29 43 40 45 10 3 19 9 19 14 0
5 9 9 20 9 11 0 20 -5 20 -12z"/>
<path d="M6789 5995 c-22 -36 -47 -65 -54 -65 -22 0 -45 -29 -45 -56 0 -14
-11 -41 -25 -61 -27 -41 -25 -53 10 -53 19 0 24 5 23 28 -1 15 11 46 25 69 24
37 30 41 81 47 30 4 60 14 67 23 11 13 8 14 -29 12 -22 -2 -44 0 -48 3 -3 4 7
26 23 50 45 65 46 68 29 68 -9 0 -34 -29 -57 -65z"/>
<path d="M5530 6035 c-7 -8 -9 -22 -6 -31 5 -13 9 -14 21 -4 16 13 21 50 6 50
-5 0 -14 -7 -21 -15z"/>
<path d="M4613 5941 c-17 -11 -40 -17 -52 -14 -18 4 -25 -3 -42 -43 -12 -27
-30 -60 -40 -73 -20 -25 -25 -51 -10 -51 4 0 29 27 55 60 63 79 74 90 91 84 7
-3 18 4 25 16 18 33 8 41 -27 21z"/>
<path d="M5358 5939 c-14 -11 -36 -18 -49 -17 -20 3 -28 -6 -49 -48 -14 -28
-33 -61 -42 -74 -21 -29 -23 -40 -5 -40 6 1 34 31 62 67 29 38 63 71 81 79 31
13 50 39 36 48 -4 2 -19 -4 -34 -15z"/>
<path d="M6448 5949 c-10 -5 -18 -15 -18 -20 0 -6 5 -7 10 -4 20 12 9 -27 -25
-97 -20 -39 -33 -73 -31 -75 7 -7 35 14 100 75 72 66 91 69 70 10 -19 -54 -11
-78 26 -78 16 0 32 5 35 10 3 6 -2 10 -13 10 -29 0 -32 8 -16 58 29 97 10 106
-72 36 -58 -50 -65 -44 -34 25 11 24 20 47 20 52 0 12 -31 11 -52 -2z"/>
<path d="M4794 5932 c-47 -26 -76 -52 -122 -110 -63 -80 -43 -94 53 -37 32 20
60 34 62 32 2 -3 -1 -16 -6 -30 -13 -34 1 -43 34 -21 28 18 33 34 10 34 -12 0
-9 9 11 40 26 39 26 40 10 75 -9 19 -18 35 -19 35 -1 -1 -16 -9 -33 -18z m9
-28 c12 -12 -28 -66 -70 -95 -80 -56 -85 -31 -9 46 52 54 66 62 79 49z"/>
<path d="M5476 5931 c-9 -9 -16 -23 -16 -30 0 -7 -16 -40 -37 -72 -35 -58 -40
-96 -5 -49 92 128 104 151 83 164 -4 3 -16 -3 -25 -13z"/>
<path d="M6980 5942 c-36 -16 -98 -68 -132 -112 -39 -50 -48 -80 -24 -80 16 0
103 48 112 61 11 19 23 -2 14 -26 -12 -32 3 -40 35 -19 28 18 33 34 10 34 -12
0 -10 9 10 38 24 37 25 40 10 75 -8 20 -16 37 -18 36 -1 0 -9 -3 -17 -7z m-6
-40 c16 -26 -106 -134 -127 -113 -8 8 4 25 46 66 56 54 71 63 81 47z"/>
<path d="M5636 5926 c-43 -13 -59 -31 -87 -94 -37 -84 -17 -105 50 -55 72 54
121 113 121 145 0 21 -25 22 -84 4z m49 -26 c4 -6 -20 -36 -52 -67 -44 -44
-59 -53 -61 -40 -5 24 29 80 56 92 12 5 22 13 22 17 0 12 28 10 35 -2z"/>
<path d="M905 5822 c6 -6 24 -13 40 -15 17 -2 12 -3 -10 -1 -22 2 -55 7 -74
10 -22 4 -32 3 -27 -4 3 -6 -4 -10 -17 -9 -30 0 -207 -32 -232 -42 -11 -5 -49
-14 -84 -20 -39 -6 -68 -17 -73 -26 -5 -8 -18 -15 -28 -15 -24 0 -122 -50
-133 -67 -4 -7 -17 -13 -27 -13 -26 0 -63 -38 -56 -57 4 -10 -1 -17 -15 -20
-14 -4 -19 -12 -16 -24 3 -11 2 -19 -3 -19 -4 0 -10 -6 -13 -13 -3 -9 14 -12
72 -12 75 0 78 1 117 38 27 25 34 37 22 37 -9 0 -19 -5 -21 -10 -3 -6 -4 -5
-3 2 2 7 15 12 30 11 20 -1 26 2 23 11 -4 10 4 14 27 14 19 0 43 5 53 11 11 6
23 7 27 4 3 -3 6 -1 6 5 0 7 -5 12 -11 12 -5 0 -7 5 -4 10 3 6 16 10 28 10 17
0 19 -2 7 -10 -26 -16 -4 -21 31 -6 19 8 79 17 134 21 207 14 365 20 368 13 2
-7 159 -21 237 -20 39 0 49 -2 35 -8 -17 -7 -16 -9 10 -10 40 -3 45 -4 78 -18
16 -7 43 -13 60 -15 18 -1 35 -6 39 -12 4 -5 11 -10 15 -10 4 -1 26 -7 48 -15
22 -8 48 -13 59 -11 12 2 16 -1 10 -10 -5 -9 -2 -10 10 -6 10 4 15 3 11 -3 -4
-6 7 -16 24 -23 17 -7 28 -17 24 -22 -5 -4 -2 -5 5 -1 12 7 37 -11 40 -29 0
-5 21 -30 45 -55 24 -25 52 -60 61 -77 9 -18 21 -33 27 -33 6 0 9 -23 7 -60
-1 -33 -6 -60 -10 -60 -4 0 -19 -11 -33 -24 -14 -13 -49 -30 -78 -36 -29 -7
-56 -16 -62 -20 -5 -4 -26 -10 -45 -13 -19 -3 -51 -8 -70 -11 -96 -18 -250
-34 -392 -40 -106 -5 -131 1 -110 27 26 32 65 114 78 165 8 31 19 61 23 66 17
20 51 140 42 145 -11 7 -20 81 -10 81 4 0 10 -17 12 -37 l4 -38 1 43 c2 41 0
44 -35 59 -26 10 -38 12 -41 4 -2 -6 -8 -11 -13 -11 -6 0 -8 4 -4 9 3 5 0 13
-6 16 -14 9 -67 -42 -65 -63 1 -11 -6 -17 -19 -17 -11 0 -29 -5 -40 -12 -17
-10 -18 -15 -7 -32 6 -12 12 -26 11 -33 0 -7 -4 -3 -9 10 -5 12 -14 22 -20 22
-13 0 -13 -116 1 -142 13 -23 2 -39 -12 -18 -8 12 -9 10 -4 -6 4 -15 0 -24
-11 -28 -12 -5 -14 -13 -10 -34 5 -21 4 -24 -5 -12 -8 12 -9 9 -4 -13 6 -31
-10 -61 -27 -51 -6 4 -7 -2 -3 -17 4 -13 4 -21 0 -16 -10 9 -44 -63 -37 -80 2
-7 9 -10 15 -6 6 4 7 1 2 -7 -6 -10 -11 -9 -21 5 -10 13 -21 16 -51 11 -21 -3
-108 -9 -193 -12 -158 -6 -175 -11 -166 -47 3 -12 -1 -17 -12 -16 -38 3 -51
-2 -54 -23 -2 -17 -9 -22 -26 -21 -13 2 -25 -4 -28 -12 -4 -8 -12 -15 -20 -15
-8 0 -14 -7 -14 -15 0 -13 29 -15 199 -15 110 0 206 -3 215 -6 26 -10 18 -39
-24 -85 -24 -27 -40 -54 -40 -69 0 -19 -2 -22 -10 -10 -7 12 -13 11 -35 -10
-15 -14 -33 -39 -42 -57 -8 -18 -19 -30 -24 -27 -5 3 -9 -2 -9 -10 0 -9 5 -16
10 -16 18 0 11 -25 -11 -38 -20 -13 -21 -12 -15 20 6 29 5 31 -6 14 -7 -10
-32 -42 -55 -72 -49 -60 -52 -71 -20 -85 18 -8 16 -9 -15 -5 -30 4 -39 0 -52
-19 -19 -29 -21 -44 -4 -27 15 15 28 16 28 2 0 -5 -6 -10 -14 -10 -8 0 -17 -8
-19 -17 -4 -17 -5 -17 -6 0 -1 21 -21 23 -21 2 0 -8 -4 -15 -8 -15 -16 0 -42
-60 -43 -102 -1 -23 -4 -33 -6 -20 -5 26 -23 30 -23 4 0 -10 -6 -24 -12 -30
-10 -10 -10 -15 2 -23 13 -9 13 -10 -2 -6 -11 4 -21 -4 -32 -28 -9 -18 -16
-36 -16 -39 0 -13 51 -5 56 8 3 8 19 17 36 20 22 4 57 34 122 103 50 53 90
102 90 110 -1 7 5 13 12 13 8 0 26 24 40 54 14 30 34 62 45 72 10 9 19 21 19
27 0 5 12 18 26 29 14 12 23 27 20 35 -3 8 -2 11 3 8 5 -3 38 30 72 72 34 43
68 83 76 89 7 6 13 14 13 18 0 9 14 25 70 83 40 41 52 47 90 49 71 2 164 16
176 25 5 5 21 8 35 7 13 -1 44 -1 69 0 42 2 44 4 26 17 -19 14 -19 15 6 15 15
0 28 -5 30 -12 5 -14 181 6 186 22 2 6 8 7 14 4 6 -4 15 0 20 7 7 11 11 11 15
2 2 -7 16 -13 30 -13 37 0 157 23 163 31 3 3 20 10 38 14 30 6 32 5 32 -19 0
-14 -4 -26 -9 -26 -5 0 -11 -13 -13 -30 -5 -34 7 -41 17 -9 4 11 9 18 12 16 2
-3 -1 -15 -7 -27 -14 -27 -36 -21 -32 10 2 14 0 20 -7 16 -6 -4 -11 -13 -11
-21 0 -8 -5 -17 -12 -21 -7 -4 -8 -3 -4 4 4 7 0 12 -11 13 -10 0 -13 3 -5 6 6
2 12 13 12 24 0 16 -4 18 -17 10 -10 -5 -38 -12 -63 -15 -49 -7 -93 -45 -83
-74 3 -12 2 -14 -4 -4 -7 9 -24 -1 -66 -41 -31 -29 -57 -61 -57 -70 0 -20 -13
-50 -44 -101 -18 -31 -22 -47 -16 -73 5 -19 4 -30 -1 -27 -5 3 -9 13 -10 22 0
9 -6 -1 -13 -23 -7 -22 -11 -44 -8 -48 2 -5 -4 -17 -13 -27 -10 -11 -15 -28
-12 -40 3 -11 1 -18 -3 -15 -5 3 -12 -10 -16 -30 -3 -19 -10 -35 -15 -35 -5 0
-6 -6 -3 -14 3 -8 1 -17 -5 -21 -6 -3 -11 -23 -11 -45 0 -22 -5 -40 -13 -43
-15 -5 -52 -125 -43 -134 3 -3 10 5 15 18 5 13 10 19 10 12 1 -6 4 -18 7 -26
3 -10 -2 -17 -13 -20 -10 -3 5 -3 32 -1 28 2 44 2 38 -2 -24 -11 -14 -24 11
-14 13 5 27 6 30 2 4 -3 9 4 13 16 3 12 10 22 15 22 5 0 7 -4 4 -9 -14 -22
132 65 160 95 30 32 29 38 -6 35 -13 -2 -13 -1 0 9 8 5 27 7 42 4 15 -3 37 -3
48 1 17 5 19 10 9 21 -7 9 -8 14 -1 14 6 0 12 8 14 18 3 14 5 13 10 -6 4 -14
2 -20 -4 -15 -7 4 -8 1 -3 -7 6 -10 16 -4 41 22 18 20 35 34 38 30 3 -3 6 0 6
8 0 7 15 25 32 41 31 27 34 55 3 29 -12 -10 -15 -10 -15 3 0 20 31 31 41 15 6
-9 19 -1 49 30 22 24 40 48 40 53 0 5 3 8 8 7 4 -1 26 17 48 40 23 23 39 42
35 42 -3 1 6 7 21 16 46 24 118 152 118 207 0 10 4 16 9 13 5 -3 11 2 14 12 4
9 18 49 31 87 27 75 32 125 16 156 -13 24 -72 25 -150 3 -30 -9 -63 -16 -72
-16 -10 1 -18 -3 -18 -9 0 -5 -12 -9 -26 -9 -14 0 -22 -4 -19 -10 3 -6 -1 -7
-9 -4 -16 6 -22 34 -8 34 16 0 152 145 152 162 0 10 6 18 14 18 16 0 58 85 58
117 1 27 -40 79 -67 87 -10 3 -16 8 -12 12 11 11 -13 33 -29 27 -10 -4 -12 0
-8 11 4 11 -9 30 -42 61 -27 25 -55 45 -61 45 -7 0 -13 6 -13 13 0 6 -19 23
-43 37 -23 14 -51 31 -62 38 -11 7 -27 15 -35 18 -8 3 -35 15 -60 26 -25 11
-63 23 -85 26 -22 3 -49 11 -60 17 -29 18 -88 28 -79 13 5 -8 2 -9 -10 -5 -10
4 -20 7 -22 7 -3 0 -2 5 1 10 4 6 -10 10 -35 10 -29 0 -39 3 -34 12 5 7 2 9
-8 5 -9 -3 -34 -1 -56 4 -22 5 -66 11 -98 14 -31 3 -61 8 -66 11 -4 3 -27 7
-51 9 -93 8 -163 17 -182 22 -14 4 -17 2 -10 -5z m-105 -42 c0 -5 -4 -10 -10
-10 -5 0 -10 5 -10 10 0 6 5 10 10 10 6 0 10 -4 10 -10z m-73 -18 c6 -4 -9 -7
-34 -8 -27 -1 -39 2 -31 7 16 11 49 11 65 1z m-90 -8 c-3 -3 -12 -4 -19 -1 -8
3 -5 6 6 6 11 1 17 -2 13 -5z m238 -4 c-3 -5 -19 -10 -35 -10 -16 0 -32 5 -35
10 -4 6 10 10 35 10 25 0 39 -4 35 -10z m322 4 c-3 -3 -12 -4 -19 -1 -8 3 -5
6 6 6 11 1 17 -2 13 -5z m128 -4 c19 -8 19 -9 -2 -9 -12 -1 -25 4 -28 9 -7 12
2 12 30 0z m-712 -17 c-7 -2 -19 -2 -25 0 -7 3 -2 5 12 5 14 0 19 -2 13 -5z
m592 -3 c-3 -5 -14 -10 -23 -9 -14 0 -13 2 3 9 27 11 27 11 20 0z m-648 -6
c-3 -3 -12 -4 -19 -1 -8 3 -5 6 6 6 11 1 17 -2 13 -5z m468 -4 c15 -6 8 -9
-28 -9 -30 -1 -46 3 -42 9 7 12 42 12 70 0z m245 -10 c0 -5 -9 -10 -19 -10
-11 0 -23 5 -26 10 -4 6 5 10 19 10 14 0 26 -4 26 -10z m-856 -39 c17 -6 17
-8 3 -14 -8 -3 -21 1 -27 9 -13 15 -6 17 24 5z m-60 -10 c3 -5 -3 -11 -15 -14
-16 -4 -18 -3 -8 9 13 16 16 17 23 5z m293 -13 c-21 -7 -32 -7 -40 1 -8 8 0
11 29 10 39 -1 39 -1 11 -11z m466 5 c-7 -2 -21 -2 -30 0 -10 3 -4 5 12 5 17
0 24 -2 18 -5z m-650 -20 c-7 -2 -19 -2 -25 0 -7 3 -2 5 12 5 14 0 19 -2 13
-5z m-153 -13 c0 -5 -2 -10 -4 -10 -3 0 -8 5 -11 10 -3 6 -1 10 4 10 6 0 11
-4 11 -10z m1140 0 c-8 -5 -26 -9 -40 -9 -23 1 -23 2 5 9 43 11 52 11 35 0z
m-1175 -20 c3 -5 -3 -10 -14 -10 -10 0 -28 -3 -38 -7 -16 -6 -16 -5 -4 10 15
19 46 23 56 7z m1202 -6 c-3 -3 -12 -4 -19 -1 -8 3 -5 6 6 6 11 1 17 -2 13 -5z
m372 -10 c13 -13 -10 -12 -35 2 l-29 16 30 -7 c16 -4 32 -9 34 -11z m-132 -31
c2 -6 -7 -13 -21 -15 -15 -3 -24 -1 -23 6 5 25 37 31 44 9z m100 11 c-3 -3
-12 -4 -19 -1 -8 3 -5 6 6 6 11 1 17 -2 13 -5z m-187 -14 c-8 -5 -19 -10 -25
-10 -5 0 -3 5 5 10 8 5 20 10 25 10 6 0 3 -5 -5 -10z m130 -35 c0 -8 -4 -15
-10 -15 -5 0 -10 7 -10 15 0 8 5 15 10 15 6 0 10 -7 10 -15z m-578 -22 c-12
-2 -20 -9 -17 -14 9 -14 -7 -10 -29 6 -18 14 -16 15 25 14 24 -1 34 -4 21 -6z
m812 -38 c3 -8 2 -15 -3 -15 -5 0 -14 7 -21 15 -10 12 -10 15 3 15 8 0 17 -7
21 -15z m-954 -25 c0 -5 -4 -10 -10 -10 -5 0 -10 5 -10 10 0 6 5 10 10 10 6 0
10 -4 10 -10z m900 -20 c0 -5 -4 -10 -10 -10 -5 0 -10 5 -10 10 0 6 5 10 10
10 6 0 10 -4 10 -10z m-50 -20 c0 -5 -7 -10 -15 -10 -8 0 -15 5 -15 10 0 6 7
10 15 10 8 0 15 -4 15 -10z m30 -51 c0 -11 -4 -17 -10 -14 -5 3 -10 13 -10 21
0 8 5 14 10 14 6 0 10 -9 10 -21z m-923 -41 c-3 -8 -6 -5 -6 6 -1 11 2 17 5
13 3 -3 4 -12 1 -19z m20 -45 c-3 -10 -5 -4 -5 12 0 17 2 24 5 18 2 -7 2 -21
0 -30z m110 -5 c-3 -8 -6 -5 -6 6 -1 11 2 17 5 13 3 -3 4 -12 1 -19z m793 -28
c0 -5 -2 -10 -4 -10 -3 0 -8 5 -11 10 -3 6 -1 10 4 10 6 0 11 -4 11 -10z m-3
-82 c-3 -8 -6 -5 -6 6 -1 11 2 17 5 13 3 -3 4 -12 1 -19z m-54 -55 c-7 -2 -21
-2 -30 0 -10 3 -4 5 12 5 17 0 24 -2 18 -5z m87 -23 c0 -5 -7 -7 -15 -4 -8 4
-15 8 -15 10 0 2 7 4 15 4 8 0 15 -4 15 -10z m-1026 -25 c3 -8 1 -15 -4 -15
-6 0 -10 7 -10 15 0 8 2 15 4 15 2 0 6 -7 10 -15z m761 -8 c-11 -6 -24 -5 -39
2 -19 9 -18 10 8 4 20 -4 27 -3 22 5 -5 8 -1 10 10 5 15 -5 15 -7 -1 -16z
m-168 -13 c-3 -3 -12 -4 -19 -1 -8 3 -5 6 6 6 11 1 17 -2 13 -5z m138 -4 c42
-11 1 -11 -50 -1 -34 7 -35 9 -10 9 17 0 44 -4 60 -8z m528 -9 c-4 -3 -11 -10
-15 -15 -4 -4 -6 1 -5 12 1 12 6 18 15 15 7 -3 10 -9 5 -12z m-456 3 c-3 -3
-12 -4 -19 -1 -8 3 -5 6 6 6 11 1 17 -2 13 -5z m380 0 c-3 -3 -12 -4 -19 -1
-8 3 -5 6 6 6 11 1 17 -2 13 -5z m-63 -33 c3 -5 -3 -11 -14 -14 -26 -7 -61 3
-54 14 7 12 61 12 68 0z m153 -23 c-3 -7 -5 -2 -5 12 0 14 2 19 5 13 2 -7 2
-19 0 -25z m-1480 16 c-3 -3 -12 -4 -19 -1 -8 3 -5 6 6 6 11 1 17 -2 13 -5z
m153 -4 c0 -12 -28 -25 -36 -17 -9 9 6 27 22 27 8 0 14 -5 14 -10z m500 -10
c-20 -13 -77 -13 -85 0 -4 6 14 10 47 10 38 0 49 -3 38 -10z m628 -15 c2 -2
-15 -5 -37 -7 -31 -3 -37 -1 -29 9 8 11 52 9 66 -2z m-1038 -5 c0 -5 -4 -10
-10 -10 -5 0 -10 5 -10 10 0 6 5 10 10 10 6 0 10 -4 10 -10z m1207 -12 c-3 -8
-6 -5 -6 6 -1 11 2 17 5 13 3 -3 4 -12 1 -19z m-1467 -8 c0 -5 -4 -10 -10 -10
-5 0 -10 5 -10 10 0 6 5 10 10 10 6 0 10 -4 10 -10z m220 2 c0 -14 -11 -21
-26 -15 -8 3 -11 9 -8 14 7 11 34 12 34 1z m1280 -6 c0 -7 -8 -20 -17 -27 -15
-12 -16 -12 -10 4 4 10 7 23 7 28 0 5 5 9 10 9 6 0 10 -6 10 -14z m-730 0 c0
-2 -9 -6 -20 -9 -11 -3 -18 -1 -14 4 5 9 34 13 34 5z m477 -2 c-3 -3 -12 -4
-19 -1 -8 3 -5 6 6 6 11 1 17 -2 13 -5z m108 -47 c25 -43 33 -87 17 -87 -5 0
-14 -11 -20 -25 -7 -15 -8 -25 -2 -25 6 0 10 -5 10 -11 0 -6 -6 -9 -12 -6 -16
5 -61 -80 -52 -95 4 -7 2 -8 -4 -4 -7 4 -12 1 -12 -8 0 -8 -27 -38 -60 -65
-81 -68 -132 -114 -210 -191 -36 -36 -78 -73 -92 -83 -15 -9 -26 -23 -24 -30
1 -6 1 -9 -1 -4 -7 12 -18 8 -43 -15 -13 -12 -30 -23 -37 -24 -6 -1 -25 -8
-40 -16 -41 -20 -129 0 -94 21 7 5 11 14 7 20 -4 6 -2 9 7 5 9 -3 28 24 61 87
26 50 63 120 82 155 19 35 33 64 29 64 -3 0 6 17 19 39 19 30 22 41 13 51 -9
10 -9 12 4 7 16 -5 28 12 78 109 14 27 21 30 64 31 60 0 92 17 119 62 26 43
36 50 68 52 23 0 24 1 5 10 -15 7 -6 8 32 6 29 -2 50 0 47 5 -3 4 -1 8 5 8 6
0 22 -20 36 -43z m-1237 1 c2 -9 -3 -18 -10 -20 -8 -4 -14 3 -14 19 -2 26 19
27 24 1z m347 12 c-3 -5 -15 -10 -26 -10 -10 0 -19 5 -19 10 0 6 12 10 26 10
14 0 23 -4 19 -10z m68 3 c-7 -2 -19 -2 -25 0 -7 3 -2 5 12 5 14 0 19 -2 13
-5z m-477 -59 c7 -12 9 -27 4 -39 -8 -18 -9 -17 -9 7 -1 15 -9 34 -18 44 -12
12 -13 16 -4 13 8 -3 20 -14 27 -25z m169 16 c-3 -5 -14 -10 -23 -10 -15 0
-15 2 -2 10 20 13 33 13 25 0z m652 -66 c-3 -3 -12 -4 -19 -1 -8 3 -5 6 6 6
11 1 17 -2 13 -5z m30 -41 c-3 -10 -5 -4 -5 12 0 17 2 24 5 18 2 -7 2 -21 0
-30z m43 -4 c0 -5 -4 -9 -10 -9 -5 0 -10 7 -10 16 0 8 5 12 10 9 6 -3 10 -10
10 -16z m398 -65 c-3 -14 -5 -12 -10 9 -3 19 -2 25 4 19 6 -6 8 -18 6 -28z
m32 26 c0 -5 -2 -10 -4 -10 -3 0 -8 5 -11 10 -3 6 -1 10 4 10 6 0 11 -4 11
-10z m25 0 c3 -5 1 -10 -4 -10 -6 0 -11 5 -11 10 0 6 2 10 4 10 3 0 8 -4 11
-10z m-29 -66 c-4 -9 -9 -15 -11 -12 -3 3 -3 13 1 22 4 9 9 15 11 12 3 -3 3
-13 -1 -22z m-539 -51 c-3 -10 -5 -4 -5 12 0 17 2 24 5 18 2 -7 2 -21 0 -30z
m43 28 c0 -6 -4 -13 -10 -16 -5 -3 -10 1 -10 9 0 9 5 16 10 16 6 0 10 -4 10
-9z m-970 -11 c0 -5 -4 -10 -10 -10 -5 0 -10 5 -10 10 0 6 5 10 10 10 6 0 10
-4 10 -10z m60 6 c0 -2 -7 -7 -16 -10 -8 -3 -12 -2 -9 4 6 10 25 14 25 6z
m1340 0 c0 -3 -4 -8 -10 -11 -5 -3 -10 -1 -10 4 0 6 5 11 10 11 6 0 10 -2 10
-4z m-577 -31 c-3 -9 -8 -14 -10 -11 -3 3 -2 9 2 15 9 16 15 13 8 -4z m575
-17 c-18 -11 -37 -27 -41 -34 -4 -8 -13 -14 -20 -14 -7 0 0 12 16 25 15 13 27
28 27 34 0 11 30 20 43 13 5 -2 -6 -13 -25 -24z m-38 8 c0 -3 -4 -8 -10 -11
-5 -3 -10 -1 -10 4 0 6 5 11 10 11 6 0 10 -2 10 -4z m-53 -68 c-3 -8 -6 -5 -6
6 -1 11 2 17 5 13 3 -3 4 -12 1 -19z m-27 -8 c0 -5 -5 -10 -11 -10 -5 0 -7 5
-4 10 3 6 8 10 11 10 2 0 4 -4 4 -10z m-1382 -13 c8 -9 4 -15 -14 -24 -25 -11
-29 -7 -18 21 7 19 18 20 32 3z m92 -12 c0 -8 -4 -15 -10 -15 -5 0 -10 7 -10
15 0 8 5 15 10 15 6 0 10 -7 10 -15z m832 -20 c4 -38 -6 -48 -15 -14 -5 18 0
49 8 49 2 0 5 -16 7 -35z m68 6 c0 -6 -4 -13 -10 -16 -5 -3 -10 1 -10 9 0 9 5
16 10 16 6 0 10 -4 10 -9z m-920 -15 c0 -3 -4 -8 -10 -11 -5 -3 -10 -1 -10 4
0 6 5 11 10 11 6 0 10 -2 10 -4z m1300 0 c0 -3 -4 -8 -10 -11 -5 -3 -10 -1
-10 4 0 6 5 11 10 11 6 0 10 -2 10 -4z m-33 -38 c-3 -8 -6 -5 -6 6 -1 11 2 17
5 13 3 -3 4 -12 1 -19z m-389 -23 c0 -13 -4 -22 -9 -19 -5 3 -9 14 -9 25 0 10
4 19 9 19 5 0 9 -11 9 -25z m-61 9 c-3 -3 -12 -4 -19 -1 -8 3 -5 6 6 6 11 1
17 -2 13 -5z m366 -19 c-3 -9 -8 -14 -10 -11 -3 3 -2 9 2 15 9 16 15 13 8 -4z
m-1266 -37 c-3 -7 -5 -2 -5 12 0 14 2 19 5 13 2 -7 2 -19 0 -25z m844 -61
c-17 -17 -22 -3 -8 26 11 25 12 25 15 6 2 -12 -1 -26 -7 -32z m369 39 c0 -2 3
-12 7 -21 5 -14 2 -16 -18 -10 -31 9 -32 11 -24 24 6 10 35 16 35 7z m-1229
-39 c-10 -9 -11 -8 -5 6 3 10 9 15 12 12 3 -3 0 -11 -7 -18z m-68 -37 c4 -15
0 -20 -14 -20 -18 0 -26 20 -12 33 11 12 21 8 26 -13z m931 -15 c-4 -8 -8 -15
-10 -15 -2 0 -4 7 -4 15 0 8 4 15 10 15 5 0 7 -7 4 -15z m-1019 -50 c-1 -31 2
-34 20 -30 18 5 18 5 2 -5 -9 -6 -22 -8 -27 -5 -12 7 -13 75 -2 75 5 0 8 -16
7 -35z m38 0 c-3 -9 -8 -14 -10 -11 -3 3 -2 9 2 15 9 16 15 13 8 -4z m967 -10
c0 -8 -7 -15 -15 -15 -16 0 -20 12 -8 23 11 12 23 8 23 -8z m85 5 c3 -5 -1
-10 -9 -10 -8 0 -18 5 -21 10 -3 6 1 10 9 10 8 0 18 -4 21 -10z m94 -1 c41
-15 39 -24 -7 -26 -20 -1 -31 1 -24 4 10 4 10 8 1 19 -14 17 -11 17 30 3z
m-86 -56 c-7 -2 -19 -2 -25 0 -7 3 -2 5 12 5 14 0 19 -2 13 -5z"/>
<path d="M5088 5553 c6 -2 18 -2 25 0 6 3 1 5 -13 5 -14 0 -19 -2 -12 -5z"/>
<path d="M5223 5553 c43 -2 110 -2 150 0 40 1 5 3 -78 3 -82 0 -115 -2 -72 -3z"/>
<path d="M5542 5553 c48 -2 129 -2 180 0 51 1 12 3 -87 3 -99 0 -141 -2 -93
-3z"/>
<path d="M5853 5553 c9 -2 23 -2 30 0 6 3 -1 5 -18 5 -16 0 -22 -2 -12 -5z"/>
<path d="M5933 5553 c9 -2 23 -2 30 0 6 3 -1 5 -18 5 -16 0 -22 -2 -12 -5z"/>
<path d="M6008 5553 c7 -3 16 -2 19 1 4 3 -2 6 -13 5 -11 0 -14 -3 -6 -6z"/>
<path d="M4438 5112 c-18 -9 -55 -33 -82 -54 -27 -21 -53 -38 -58 -38 -5 0 -6
-4 -3 -10 3 -5 0 -7 -8 -4 -8 3 -20 -3 -28 -12 -12 -15 -12 -16 9 -10 31 10
28 0 -5 -18 -16 -8 -21 -15 -13 -16 26 0 82 39 74 53 -4 6 1 5 10 -3 22 -21
23 -86 1 -135 -9 -22 -25 -66 -35 -97 -10 -31 -26 -70 -34 -87 -18 -34 -20
-51 -7 -51 5 0 12 12 14 28 4 26 4 26 6 -4 1 -33 -23 -66 -31 -42 -3 7 -15 -8
-26 -34 -12 -26 -19 -54 -15 -64 5 -12 3 -15 -6 -9 -10 6 -12 0 -9 -21 3 -16
3 -23 1 -16 -3 6 -9 12 -15 12 -5 0 -7 -7 -4 -16 3 -8 -1 -22 -10 -31 -8 -9
-13 -22 -10 -29 3 -8 2 -14 -2 -14 -4 0 -15 -16 -24 -35 -13 -29 -13 -35 -2
-35 18 0 18 -14 0 -29 -11 -9 -15 -9 -19 1 -3 8 -6 6 -6 -6 -1 -10 -13 -32
-27 -49 -15 -18 -22 -33 -15 -35 6 -2 2 -12 -10 -25 -11 -12 -23 -33 -26 -47
-3 -14 -14 -37 -24 -52 -22 -30 -24 -48 -7 -48 6 0 3 -7 -8 -15 -19 -15 -9
-15 104 0 22 2 111 97 105 111 -3 8 0 14 7 14 6 0 39 25 73 55 33 30 64 55 69
55 4 0 8 6 8 14 0 8 14 20 30 28 17 7 30 17 30 21 0 5 -3 6 -7 4 -5 -3 -9 13
-9 35 -1 22 1 36 5 31 3 -5 15 -13 26 -18 19 -8 19 -8 -2 -14 -16 -4 -20 -10
-14 -20 7 -11 13 -10 32 8 12 11 26 21 31 21 4 0 5 7 2 15 -5 11 -2 13 10 9
22 -8 20 12 -1 25 -10 6 -13 11 -7 11 5 0 15 -5 22 -12 8 -8 15 -8 26 2 9 7
13 16 10 21 -3 5 2 9 10 9 9 0 16 5 16 10 0 6 6 10 13 10 21 0 48 35 42 52 -3
8 2 21 11 29 16 12 17 12 11 -3 -3 -10 -3 -18 2 -18 9 0 42 35 39 41 -2 2 -1
3 1 2 11 -7 28 20 24 37 -4 15 0 20 13 20 16 0 17 -2 4 -10 -8 -5 -10 -10 -5
-10 20 1 127 109 119 122 -4 7 -3 10 1 5 11 -9 45 21 45 40 0 10 9 13 28 11
24 -3 27 -7 29 -45 1 -28 -3 -43 -11 -43 -6 0 -12 -8 -12 -17 -1 -10 -5 -27
-9 -37 -6 -14 -5 -17 3 -12 21 13 13 -14 -13 -42 -23 -24 -30 -43 -26 -66 1
-4 -2 -13 -8 -20 -5 -6 -16 -45 -26 -86 -9 -41 -22 -86 -30 -100 -15 -30 -12
-133 6 -169 23 -46 41 -63 52 -49 6 9 7 8 3 -5 -12 -37 54 -78 127 -80 63 -1
103 20 113 58 3 14 11 25 16 25 6 0 7 7 4 15 -6 16 6 24 39 29 16 2 35 23 35
39 0 4 -8 3 -17 -2 -10 -5 -32 -15 -50 -22 -17 -7 -30 -17 -27 -21 7 -10 -67
3 -97 18 -14 7 -32 27 -39 44 -7 16 -16 30 -21 30 -5 0 -9 7 -9 15 0 8 -4 15
-10 15 -5 0 -10 8 -10 18 0 14 2 15 10 2 8 -12 10 -11 10 8 0 12 6 33 14 45 7
12 17 42 20 66 4 24 15 62 25 85 61 136 91 238 91 307 0 98 -15 119 -86 119
-36 0 -66 -7 -92 -21 -32 -18 -34 -20 -9 -15 26 6 27 5 17 -14 -6 -11 -14 -20
-18 -20 -5 0 -18 -9 -31 -21 -32 -30 -37 -17 -5 14 15 15 23 27 18 27 -17 0
-266 -249 -259 -260 3 -5 -2 -10 -13 -10 -23 0 -46 -25 -37 -39 4 -7 -1 -8
-11 -4 -12 4 -15 3 -10 -5 5 -8 2 -10 -8 -6 -9 3 -16 2 -16 -4 0 -6 6 -12 13
-15 6 -2 8 -8 4 -13 -4 -5 -12 -2 -16 5 -11 17 -34 4 -27 -14 3 -8 -3 -19 -11
-27 -15 -11 -16 -10 -9 7 6 17 3 16 -17 -5 -14 -14 -22 -28 -20 -32 2 -5 -4
-8 -14 -8 -10 0 -36 -18 -58 -41 -84 -85 -78 -81 -87 -64 -5 8 -4 23 2 35 24
47 28 58 40 110 7 30 13 57 13 60 -1 3 8 17 18 32 10 14 19 31 19 37 0 6 4 11
9 11 15 0 74 131 73 162 0 15 2 28 6 28 14 0 72 174 72 216 0 10 6 30 13 44
11 23 13 33 9 67 -3 16 -85 13 -124 -5z m19 -18 c-3 -3 -12 -4 -19 -1 -8 3 -5
6 6 6 11 1 17 -2 13 -5z m76 -1 c-7 -2 -19 -2 -25 0 -7 3 -2 5 12 5 14 0 19
-2 13 -5z m-148 -53 c3 -5 2 -10 -4 -10 -5 0 -13 5 -16 10 -3 6 -2 10 4 10 5
0 13 -4 16 -10z m107 -19 c2 -17 1 -28 -4 -25 -8 5 -12 54 -4 54 2 0 6 -13 8
-29z m-107 -11 c13 -6 15 -9 5 -9 -8 0 -22 4 -30 9 -18 12 -2 12 25 0z m-18
-42 c-3 -8 -6 -5 -6 6 -1 11 2 17 5 13 3 -3 4 -12 1 -19z m33 -28 c0 -5 -5
-10 -11 -10 -5 0 -7 5 -4 10 3 6 8 10 11 10 2 0 4 -4 4 -10z m100 -50 c0 -5
-2 -10 -4 -10 -3 0 -8 5 -11 10 -3 6 -1 10 4 10 6 0 11 -4 11 -10z m515 -30
c3 -5 -3 -10 -14 -10 -12 0 -21 5 -21 10 0 6 6 10 14 10 8 0 18 -4 21 -10z
m58 -60 c4 -36 3 -48 -3 -35 -5 11 -9 32 -9 48 -1 15 -7 27 -13 27 -9 0 -8 3
2 10 18 11 16 15 23 -50z m-243 -36 c0 -3 -7 -12 -16 -21 -11 -12 -18 -13 -27
-4 -8 8 -7 11 6 11 9 0 17 5 17 10 0 6 5 10 10 10 6 0 10 -3 10 -6z m227 -66
c-2 -13 -4 -5 -4 17 -1 22 1 32 4 23 2 -10 2 -28 0 -40z m-747 -18 c0 -5 -2
-10 -4 -10 -3 0 -8 5 -11 10 -3 6 -1 10 4 10 6 0 11 -4 11 -10z m445 0 c3 -5
-1 -10 -9 -10 -9 0 -16 5 -16 10 0 6 4 10 9 10 6 0 13 -4 16 -10z m-30 -20 c3
-5 1 -10 -4 -10 -6 0 -11 5 -11 10 0 6 2 10 4 10 3 0 8 -4 11 -10z m35 -10 c0
-5 -5 -10 -11 -10 -5 0 -7 5 -4 10 3 6 8 10 11 10 2 0 4 -4 4 -10z m-90 -50
c0 -5 -2 -10 -4 -10 -3 0 -8 5 -11 10 -3 6 -1 10 4 10 6 0 11 -4 11 -10z
m-315 -11 c11 -17 -1 -21 -15 -4 -8 9 -8 15 -2 15 6 0 14 -5 17 -11z m652 -41
c-3 -8 -6 -5 -6 6 -1 11 2 17 5 13 3 -3 4 -12 1 -19z m-30 -25 c-3 -10 -5 -4
-5 12 0 17 2 24 5 18 2 -7 2 -21 0 -30z m-57 7 c0 -5 -5 -10 -11 -10 -5 0 -7
5 -4 10 3 6 8 10 11 10 2 0 4 -4 4 -10z m-691 -80 c0 -10 -3 -8 -9 5 -12 27
-12 43 0 25 5 -8 9 -22 9 -30z m371 36 c0 -3 -4 -8 -10 -11 -5 -3 -10 -1 -10
4 0 6 5 11 10 11 6 0 10 -2 10 -4z m370 -56 c0 -5 -5 -10 -11 -10 -5 0 -7 5
-4 10 3 6 8 10 11 10 2 0 4 -4 4 -10z m-520 -24 c0 -3 -4 -8 -10 -11 -5 -3
-10 -1 -10 4 0 6 5 11 10 11 6 0 10 -2 10 -4z m440 -73 c-1 -14 -4 -13 -15 7
-19 33 -19 45 0 26 8 -8 15 -23 15 -33z m-733 5 c-3 -8 -6 -5 -6 6 -1 11 2 17
5 13 3 -3 4 -12 1 -19z m213 -38 c0 -5 -7 -10 -16 -10 -8 0 -12 5 -9 10 3 6
10 10 16 10 5 0 9 -4 9 -10z m527 -47 c-3 -10 -5 -4 -5 12 0 17 2 24 5 18 2
-7 2 -21 0 -30z m-707 -29 c0 -8 -4 -14 -9 -14 -5 0 -16 -3 -25 -6 -21 -8 -21
10 0 30 17 18 34 13 34 -10z m55 -26 c5 4 5 1 1 -5 -11 -19 -47 -17 -40 2 5
11 10 13 19 5 6 -5 16 -6 20 -2z m595 -28 c0 -5 -2 -10 -4 -10 -3 0 -8 5 -11
10 -3 6 -1 10 4 10 6 0 11 -4 11 -10z m-708 -35 c4 -19 1 -25 -13 -25 -21 0
-25 20 -7 38 16 16 15 16 20 -13z m-84 -30 c-3 -3 -9 2 -12 12 -6 14 -5 15 5
6 7 -7 10 -15 7 -18z m940 7 c2 -7 -3 -12 -12 -12 -9 0 -16 7 -16 16 0 17 22
14 28 -4z m113 -2 c5 0 4 -9 -3 -19 -11 -18 -13 -18 -25 -3 -17 23 -16 35 3
28 9 -3 20 -6 25 -6z m-979 -42 c-7 -7 -12 -8 -12 -2 0 6 3 14 7 17 3 4 9 5
12 2 2 -3 -1 -11 -7 -17z m938 -8 c0 -11 -2 -20 -4 -20 -2 0 -6 9 -9 20 -3 11
-1 20 4 20 5 0 9 -9 9 -20z m-976 -14 c-4 -10 -17 -16 -38 -15 l-31 1 33 9
c17 5 32 15 32 21 0 6 2 9 5 6 3 -3 3 -13 -1 -22z m953 -6 c-1 -14 -8 -20 -25
-20 -13 0 -20 4 -17 10 3 6 13 10 21 10 8 0 14 5 14 10 0 6 2 10 4 10 3 0 4
-9 3 -20z m-82 -10 c3 -5 2 -10 -4 -10 -5 0 -13 5 -16 10 -3 6 -2 10 4 10 5 0
13 -4 16 -10z"/>
<path d="M6196 5089 c5 -8 -1 -10 -19 -5 -14 3 -28 2 -31 -3 -3 -4 -32 -14
-65 -21 -66 -14 -147 -71 -137 -96 3 -8 1 -14 -3 -14 -5 0 -11 5 -13 11 -2 6
-25 -13 -52 -41 -28 -30 -46 -56 -42 -65 3 -8 0 -17 -6 -21 -7 -5 -8 -2 -3 6
5 8 3 11 -6 8 -8 -3 -13 -16 -12 -29 1 -13 -1 -18 -3 -11 -9 19 -18 14 -38
-18 -9 -17 -14 -29 -9 -28 4 2 8 -1 8 -7 0 -5 -3 -9 -7 -7 -5 1 -8 -6 -9 -15
0 -11 -3 -13 -6 -5 -8 19 -23 14 -23 -9 0 -13 -4 -18 -12 -13 -8 5 -9 2 -5
-10 5 -12 3 -16 -5 -13 -7 2 -24 -12 -37 -31 -19 -28 -21 -36 -10 -44 10 -7 9
-8 -6 -4 -25 7 -49 -35 -31 -55 8 -9 8 -10 -2 -5 -19 11 -44 -13 -37 -35 4
-13 1 -19 -9 -19 -8 0 -20 -9 -26 -20 -6 -11 -8 -20 -5 -20 4 0 -1 -7 -9 -16
-9 -8 -14 -25 -12 -37 1 -12 1 -16 -1 -9 -7 20 -23 3 -23 -24 0 -13 -5 -24
-11 -24 -14 0 -52 -88 -43 -102 4 -6 3 -8 -4 -4 -14 8 -19 -12 -28 -101 -5
-59 -3 -77 10 -98 9 -14 21 -25 27 -25 6 0 17 -7 25 -15 17 -17 44 -20 44 -5
0 6 10 10 23 10 18 0 19 -2 7 -10 -11 -7 -5 -10 23 -10 40 0 51 16 15 23 l-23
4 23 2 c12 0 22 6 22 12 0 5 5 7 11 3 8 -4 7 -9 -2 -16 -10 -7 -1 -8 26 -4 22
3 41 10 43 15 2 5 12 6 24 3 15 -4 19 -2 13 8 -5 8 -3 11 6 8 15 -6 84 26 107
48 7 8 19 14 26 14 7 0 21 9 31 20 10 11 24 20 32 20 7 0 13 5 13 11 0 5 -5 7
-12 3 -7 -4 -8 -3 -4 4 4 6 13 9 20 6 7 -3 19 2 26 11 10 12 10 18 -1 31 -11
13 -9 14 12 9 19 -5 31 1 53 24 18 18 25 34 20 43 -4 7 -4 10 1 6 9 -8 40 20
32 29 -8 7 -53 -22 -85 -53 -13 -13 -37 -29 -52 -36 -20 -8 -25 -15 -17 -20 8
-5 5 -8 -9 -8 -11 0 -48 -13 -82 -30 -34 -16 -69 -30 -76 -30 -10 0 -12 -7 -8
-22 5 -22 4 -22 -14 -7 -13 11 -36 16 -71 14 -29 0 -53 3 -53 8 0 4 -4 6 -9 2
-15 -9 -51 50 -51 85 0 17 9 50 21 73 22 46 27 54 81 142 20 33 38 66 40 73 2
7 19 30 38 51 19 22 46 58 60 81 14 23 32 50 40 59 35 38 72 104 62 110 -7 4
-5 13 4 25 14 19 14 19 14 -3 0 -20 3 -18 35 16 19 21 35 41 35 46 0 4 8 7 18
8 13 0 12 3 -5 11 -13 6 -23 15 -23 20 0 13 18 10 23 -4 4 -10 6 -10 6 0 1 16
21 16 21 -1 0 -6 14 -18 31 -26 l30 -13 -2 -92 c-2 -50 -6 -101 -11 -114 -7
-21 -6 -22 14 -11 34 18 108 91 108 106 0 7 4 13 9 13 15 0 43 128 46 210 3
64 0 80 -11 80 -8 0 -14 5 -14 10 0 6 -7 10 -16 10 -9 0 -12 -5 -8 -11z m-73
-46 c-7 -2 -19 -2 -25 0 -7 3 -2 5 12 5 14 0 19 -2 13 -5z m-80 -29 c-3 -8
-12 -13 -20 -10 -8 3 -18 6 -21 7 -8 0 29 17 40 18 4 1 5 -6 1 -15z m67 2 c0
-2 -9 -6 -20 -9 -11 -3 -18 -1 -14 4 5 9 34 13 34 5z m-184 -102 c-7 -7 -14
-8 -22 0 -7 7 -8 14 0 22 7 7 14 8 22 0 7 -7 8 -14 0 -22z m-41 -33 c-3 -6
-11 -11 -17 -11 -6 0 -6 6 2 15 14 17 26 13 15 -4z m295 -21 c0 -11 -2 -20 -4
-20 -2 0 -6 9 -9 20 -3 11 -1 20 4 20 5 0 9 -9 9 -20z m27 -17 c-3 -10 -5 -4
-5 12 0 17 2 24 5 18 2 -7 2 -21 0 -30z m-37 -24 c0 -6 -4 -7 -10 -4 -5 3 -10
11 -10 16 0 6 5 7 10 4 6 -3 10 -11 10 -16z m-73 -36 c-3 -10 -5 -4 -5 12 0
17 2 24 5 18 2 -7 2 -21 0 -30z m-307 3 c0 -3 -4 -8 -10 -11 -5 -3 -10 -1 -10
4 0 6 5 11 10 11 6 0 10 -2 10 -4z m61 -37 c-9 -22 -10 -22 -10 -3 -1 11 2 24
6 27 12 12 14 0 4 -24z m257 -39 c-7 -11 -16 -20 -21 -20 -4 0 -3 9 3 20 6 11
15 20 20 20 6 0 5 -9 -2 -20z m-348 -60 c0 -5 -4 -10 -10 -10 -5 0 -10 5 -10
10 0 6 5 10 10 10 6 0 10 -4 10 -10z m30 6 c0 -3 -4 -8 -10 -11 -5 -3 -10 -1
-10 4 0 6 5 11 10 11 6 0 10 -2 10 -4z m-118 -28 c-7 -7 -12 -8 -12 -2 0 14
12 26 19 19 2 -3 -1 -11 -7 -17z m-17 -47 c3 -5 1 -12 -5 -16 -5 -3 -10 1 -10
9 0 18 6 21 15 7z m29 -31 c-5 -5 -10 3 -11 18 -1 22 0 24 9 8 6 -10 6 -22 2
-26z m-54 -33 c0 -2 -9 -12 -20 -22 -19 -17 -20 -17 -20 -1 0 9 5 14 10 11 6
-3 10 -1 10 4 0 6 5 11 10 11 6 0 10 -2 10 -3z m-73 -59 c-3 -8 -6 -5 -6 6 -1
11 2 17 5 13 3 -3 4 -12 1 -19z m93 7 c0 -8 -4 -15 -10 -15 -5 0 -10 7 -10 15
0 8 5 15 10 15 6 0 10 -7 10 -15z m-20 -45 c0 -5 -4 -10 -10 -10 -5 0 -10 5
-10 10 0 6 5 10 10 10 6 0 10 -4 10 -10z m-20 -27 c-1 -5 -7 -19 -15 -33 l-14
-25 -1 33 c0 22 5 32 15 32 8 0 15 -3 15 -7z m-47 -73 c-5 -19 -23 -39 -23
-25 0 9 20 45 24 45 2 0 2 -9 -1 -20z m-66 -32 c-3 -8 -6 -5 -6 6 -1 11 2 17
5 13 3 -3 4 -12 1 -19z m-64 -93 c-3 -9 -8 -14 -10 -11 -3 3 -2 9 2 15 9 16
15 13 8 -4z m443 -36 c3 -6 1 -16 -5 -22 -8 -8 -11 -8 -11 2 0 8 -6 11 -15 7
-8 -3 -15 -2 -15 3 0 21 34 29 46 10z m-318 -11 c7 -7 12 -16 12 -20 0 -15
-15 -8 -28 12 -13 22 -3 27 16 8z m-108 -68 c13 7 21 7 25 -1 4 -6 -2 -13 -14
-16 -16 -4 -20 -11 -16 -27 6 -21 6 -21 -9 -2 -9 11 -15 36 -15 55 2 31 3 32
6 9 4 -24 7 -26 23 -18z m180 21 c0 -12 -20 -25 -27 -18 -7 7 6 27 18 27 5 0
9 -4 9 -9z m164 -10 c3 -5 -1 -11 -9 -14 -9 -4 -12 -1 -8 9 6 16 10 17 17 5z
m-204 -11 c0 -5 -5 -10 -11 -10 -5 0 -7 5 -4 10 3 6 8 10 11 10 2 0 4 -4 4
-10z m-83 -66 c-3 -3 -12 -4 -19 -1 -8 3 -5 6 6 6 11 1 17 -2 13 -5z m40 0
c-3 -3 -12 -4 -19 -1 -8 3 -5 6 6 6 11 1 17 -2 13 -5z"/>
<path d="M3719 5036 c12 -14 11 -16 -5 -16 -11 0 -25 4 -33 9 -8 5 -21 5 -30
1 -9 -5 -41 -21 -71 -35 -71 -34 -95 -55 -78 -67 8 -6 5 -7 -9 -3 -17 5 -23 2
-23 -9 0 -14 -7 -18 -26 -15 -11 2 -64 -55 -64 -68 0 -7 -6 -13 -13 -13 -7 0
-26 -14 -43 -32 -21 -22 -24 -29 -11 -25 13 5 17 3 15 -5 -3 -7 -11 -13 -19
-14 -33 -2 -39 -5 -39 -15 0 -5 6 -7 13 -3 7 4 8 3 4 -2 -5 -5 -16 -9 -25 -9
-10 0 -16 -7 -16 -17 1 -10 -2 -16 -6 -13 -10 6 -100 -73 -100 -87 0 -5 -12
-25 -26 -43 -17 -22 -23 -41 -19 -54 3 -10 1 -22 -4 -26 -7 -4 -8 1 -4 11 4
12 2 15 -8 12 -8 -2 -15 -16 -17 -31 -2 -18 -8 -24 -18 -20 -8 3 -14 0 -14 -7
0 -6 -11 -26 -25 -44 -14 -18 -25 -36 -25 -40 0 -4 -13 -24 -30 -44 -16 -21
-28 -46 -26 -57 2 -11 1 -14 -1 -7 -8 21 -26 13 -20 -9 4 -15 2 -19 -8 -15
-18 7 -31 -14 -15 -24 13 -8 8 -13 -34 -35 -11 -5 -21 -16 -22 -23 -1 -7 0 -8
3 -2 11 23 24 7 21 -27 -2 -30 -8 -38 -30 -44 -33 -8 -33 -7 -12 26 9 14 12
25 7 25 -5 0 -15 -11 -22 -24 -10 -18 -10 -28 -1 -46 8 -15 8 -20 1 -16 -24
15 -9 -25 15 -40 24 -16 28 -16 77 4 29 12 63 22 76 22 14 0 33 7 43 17 10 9
28 21 41 28 12 6 21 18 19 27 -1 9 4 18 12 21 11 4 13 1 9 -10 -4 -11 11 -4
41 17 26 19 50 38 52 42 3 5 15 8 28 8 25 0 90 62 79 75 -5 4 -3 6 3 2 16 -9
90 63 75 73 -9 5 -9 10 -3 14 6 3 12 1 14 -6 2 -6 10 -8 17 -4 9 6 9 11 0 22
-10 12 -9 13 5 8 9 -3 16 -13 16 -21 0 -16 31 -10 65 13 11 8 25 14 33 14 7 0
23 10 35 21 l22 22 -22 -6 c-13 -3 -23 0 -23 5 0 6 12 8 30 5 18 -4 30 -2 30
4 0 6 10 9 23 7 17 -2 21 -9 19 -30 -2 -19 2 -27 10 -24 7 1 10 1 5 -1 -4 -3
-4 -9 -1 -15 4 -6 -2 -5 -15 1 -18 10 -21 9 -21 -8 0 -11 -4 -22 -10 -26 -5
-3 -7 -12 -3 -20 3 -8 1 -15 -5 -15 -10 0 -27 -47 -23 -67 1 -7 -3 -13 -9 -13
-5 0 -10 -11 -10 -25 0 -14 -4 -25 -10 -25 -5 0 -10 -6 -10 -14 0 -8 -5 -16
-11 -18 -7 -2 -12 -24 -13 -48 l-1 -45 48 -3 c36 -2 61 3 101 23 56 27 96 59
96 75 0 6 6 10 14 10 14 0 26 29 26 62 0 11 -5 15 -15 12 -8 -4 -13 -10 -10
-14 2 -4 -13 -10 -36 -14 -22 -3 -37 -11 -34 -16 3 -5 0 -7 -8 -4 -9 3 -16 -3
-20 -15 -6 -25 -22 -27 -31 -6 -3 9 0 15 9 15 8 0 15 5 15 10 0 6 -4 10 -10
10 -5 0 -10 7 -10 15 0 8 6 12 13 10 7 -3 29 31 56 87 25 51 52 99 60 108 9 8
27 38 41 65 14 28 27 52 30 55 19 19 60 127 60 158 0 20 4 53 9 73 5 21 5 43
0 50 -7 11 -9 11 -9 1 0 -10 -5 -10 -20 -2 -10 6 -25 9 -32 8 -14 -3 -15 45
-3 96 5 17 4 27 -1 24 -5 -3 -10 12 -11 34 -1 49 -32 83 -83 93 -31 7 -33 6
-21 -9z m-89 -46 c0 -5 -4 -10 -10 -10 -5 0 -10 5 -10 10 0 6 5 10 10 10 6 0
10 -4 10 -10z m147 -32 c-3 -8 -6 -5 -6 6 -1 11 2 17 5 13 3 -3 4 -12 1 -19z
m-58 3 c11 -7 9 -10 -8 -16 -24 -7 -44 2 -36 16 8 11 26 11 44 0z m-128 -29
c12 -5 14 -13 8 -27 -6 -16 -8 -17 -8 -3 -1 9 -9 22 -18 27 -20 12 -7 13 18 3z
m-21 -26 c0 -3 -4 -8 -10 -11 -5 -3 -10 -1 -10 4 0 6 5 11 10 11 6 0 10 -2 10
-4z m107 -18 c-3 -8 -6 -5 -6 6 -1 11 2 17 5 13 3 -3 4 -12 1 -19z m0 -40 c-1
-9 -5 -14 -9 -12 -4 3 -8 -3 -8 -13 0 -10 -7 -29 -16 -41 -9 -13 -13 -26 -10
-29 3 -3 2 -11 -3 -17 -4 -6 -18 -37 -30 -69 -16 -43 -18 -63 -11 -77 14 -27
12 -37 -3 -16 -12 16 -15 14 -31 -26 -10 -23 -35 -56 -56 -73 -21 -16 -36 -33
-34 -37 3 -4 -9 -15 -26 -24 -16 -10 -30 -21 -30 -25 0 -4 -14 -9 -30 -13 -21
-4 -34 -14 -41 -33 -11 -31 -54 -75 -63 -66 -3 4 -6 1 -6 -5 0 -7 -4 -12 -9
-12 -12 0 -105 -61 -109 -72 -2 -4 -9 -8 -15 -8 -17 0 -98 -55 -92 -62 3 -3
-11 -3 -32 0 -21 3 -53 6 -70 6 -18 0 -33 3 -33 8 0 4 5 8 10 8 6 0 10 6 10
14 0 7 14 31 31 52 45 57 54 75 32 68 -10 -4 -4 3 12 14 37 23 78 79 51 69
-10 -4 -15 -3 -11 3 3 6 12 10 18 10 11 0 55 58 66 85 14 37 281 319 338 358
18 12 33 28 33 36 0 8 6 11 16 7 11 -4 15 -2 11 6 -3 9 9 14 39 16 33 2 49 -3
64 -18 24 -24 30 -25 30 -6 0 8 -7 16 -15 20 -8 3 -15 10 -15 16 0 6 11 3 24
-7 13 -10 24 -26 23 -35z m100 -40 c-3 -7 -5 -2 -5 12 0 14 2 19 5 13 2 -7 2
-19 0 -25z m-377 -12 c0 -3 -4 -8 -10 -11 -5 -3 -10 -1 -10 4 0 6 5 11 10 11
6 0 10 -2 10 -4z m-10 -31 c0 -11 -31 -11 -39 -1 -9 10 -6 12 14 8 14 -2 25
-6 25 -7z m277 -17 c-3 -7 -5 -2 -5 12 0 14 2 19 5 13 2 -7 2 -19 0 -25z m203
22 c0 -5 -4 -10 -10 -10 -5 0 -10 5 -10 10 0 6 5 10 10 10 6 0 10 -4 10 -10z
m-540 -50 c0 -5 -5 -10 -11 -10 -5 0 -7 5 -4 10 3 6 8 10 11 10 2 0 4 -4 4
-10z m-40 -34 c0 -3 -4 -8 -10 -11 -5 -3 -10 -1 -10 4 0 6 5 11 10 11 6 0 10
-2 10 -4z m-110 -85 c0 -12 -20 -25 -27 -18 -7 7 6 27 18 27 5 0 9 -4 9 -9z
m15 -41 c-3 -5 -11 -10 -16 -10 -6 0 -7 5 -4 10 3 6 11 10 16 10 6 0 7 -4 4
-10z m-59 -35 c-6 -17 -26 -20 -26 -4 0 5 5 7 10 4 6 -3 10 4 11 17 0 13 3 17
6 10 3 -7 2 -19 -1 -27z m462 -20 c-3 -3 -9 2 -12 12 -6 14 -5 15 5 6 7 -7 10
-15 7 -18z m169 -17 c-3 -7 -5 -2 -5 12 0 14 2 19 5 13 2 -7 2 -19 0 -25z
m-234 -24 c10 14 12 13 12 -6 0 -18 -6 -23 -30 -25 -16 0 -24 1 -17 4 6 2 13
14 13 26 1 18 2 19 6 4 4 -17 6 -17 16 -3z m57 -9 c-7 -9 -15 -13 -17 -11 -7
7 7 26 19 26 6 0 6 -6 -2 -15z m88 -32 c-13 -16 -15 -16 -21 1 -4 10 0 14 13
13 14 -1 16 -4 8 -14z m89 -5 c-3 -8 -6 -5 -6 6 -1 11 2 17 5 13 3 -3 4 -12 1
-19z m-733 -23 c-4 -8 -11 -15 -16 -15 -6 0 -5 6 2 15 7 8 14 15 16 15 2 0 1
-7 -2 -15z m432 -14 c20 -16 21 -20 8 -25 -24 -9 -44 -7 -44 5 0 5 5 7 11 3 8
-4 8 0 0 15 -14 26 -6 27 25 2z m254 4 c0 -8 -4 -15 -9 -15 -13 0 -22 16 -14
24 11 11 23 6 23 -9z m-10 -45 c0 -5 -5 -10 -11 -10 -5 0 -7 5 -4 10 3 6 8 10
11 10 2 0 4 -4 4 -10z m-720 -24 c0 -3 -4 -8 -10 -11 -5 -3 -10 -1 -10 4 0 6
5 11 10 11 6 0 10 -2 10 -4z m270 -80 c0 -2 -7 -7 -16 -10 -8 -3 -12 -2 -9 4
6 10 25 14 25 6z m382 -18 c-7 -7 -12 -8 -12 -2 0 6 3 14 7 17 3 4 9 5 12 2 2
-3 -1 -11 -7 -17z m-432 -8 c-8 -5 -19 -10 -25 -10 -5 0 -3 5 5 10 8 5 20 10
25 10 6 0 3 -5 -5 -10z m370 -29 c0 -6 -4 -13 -10 -16 -5 -3 -10 1 -10 9 0 9
5 16 10 16 6 0 10 -4 10 -9z m-660 -15 c0 -3 -4 -8 -10 -11 -5 -3 -10 -1 -10
4 0 6 5 11 10 11 6 0 10 -2 10 -4z m220 -3 c0 -9 -52 -35 -58 -29 -2 3 9 11
25 20 33 18 33 18 33 9z m605 -3 c3 -5 -3 -10 -14 -10 -12 0 -21 5 -21 10 0 6
6 10 14 10 8 0 18 -4 21 -10z m-35 -60 c-13 -11 -25 -20 -28 -20 -3 0 3 9 13
20 10 11 23 20 28 20 6 0 0 -9 -13 -20z m-706 -19 c7 -10 -22 -37 -30 -28 -9
8 3 37 15 37 5 0 12 -4 15 -9z m46 -1 c0 -5 -7 -7 -15 -4 -8 4 -15 8 -15 10 0
2 7 4 15 4 8 0 15 -4 15 -10z m-207 -57 c-7 -2 -19 -2 -25 0 -7 3 -2 5 12 5
14 0 19 -2 13 -5z m47 -8 c-7 -8 -26 -14 -44 -13 l-31 1 34 4 c26 3 31 7 20
14 -11 7 -8 9 10 9 20 0 21 -2 11 -15z"/>
<path d="M7185 5033 c-75 -15 -161 -37 -169 -41 -5 -3 -1 -9 10 -14 13 -5 8
-6 -13 -2 -22 4 -33 2 -33 -6 0 -7 -7 -10 -15 -6 -22 8 -75 -14 -75 -32 0 -8
-3 -12 -7 -9 -3 4 -21 -13 -38 -37 -28 -40 -32 -42 -42 -26 -9 13 -9 20 0 29
14 14 3 14 -60 -3 -29 -8 -53 -11 -53 -8 0 4 -31 -26 -69 -67 -40 -41 -67 -79
-64 -86 2 -8 0 -22 -6 -32 -9 -15 -10 -13 -5 11 5 21 3 27 -6 24 -27 -9 -55
-95 -37 -116 10 -12 9 -14 -3 -10 -21 7 -61 -50 -55 -79 2 -13 0 -21 -5 -18
-9 6 -25 -51 -21 -77 1 -10 -2 -18 -8 -18 -8 0 -23 -29 -26 -50 0 -3 -4 -11
-9 -18 -4 -7 -3 -19 4 -27 12 -14 7 -19 -14 -16 -5 1 -5 -6 -2 -16 4 -9 10
-37 13 -62 5 -32 3 -42 -6 -37 -6 4 -9 12 -5 17 3 6 3 22 -1 37 l-8 27 -12
-30 c-7 -16 -11 -35 -8 -41 2 -7 0 -15 -6 -19 -6 -3 -12 -21 -12 -38 -1 -22
-3 -26 -6 -12 -4 14 -9 6 -19 -30 -15 -57 -10 -85 14 -85 13 0 14 -2 4 -9 -9
-5 1 -7 25 -6 62 4 70 7 33 15 l-35 7 32 2 c17 0 35 -3 38 -9 3 -6 21 1 43 15
20 13 52 30 70 36 23 8 31 16 27 26 -3 11 -1 13 10 9 10 -3 32 11 61 40 27 27
50 44 59 40 8 -3 17 0 21 6 5 8 -3 9 -27 5 -31 -6 -30 -5 15 18 50 26 75 26
40 0 -10 -8 -14 -15 -7 -15 20 0 105 93 92 101 -8 4 -3 8 12 11 13 1 28 13 34
26 5 12 14 22 19 22 6 0 51 43 102 95 50 52 94 95 98 95 12 0 42 36 39 46 -2
6 6 19 17 29 11 10 20 22 20 28 0 5 16 42 35 82 25 54 33 83 30 107 -4 28 -3
29 4 8 9 -28 13 -22 30 43 5 22 6 35 0 32 -5 -4 -9 1 -9 10 0 9 5 13 10 10 20
-12 11 64 -10 85 -11 11 -23 19 -27 19 -5 -1 -17 -3 -28 -6z m42 -19 c-3 -3
-12 -4 -19 -1 -8 3 -5 6 6 6 11 1 17 -2 13 -5z m-194 -71 c-7 -2 -21 -2 -30 0
-10 3 -4 5 12 5 17 0 24 -2 18 -5z m40 -30 c-7 -2 -19 -2 -25 0 -7 3 -2 5 12
5 14 0 19 -2 13 -5z m-86 -9 c-3 -3 -12 -4 -19 -1 -8 3 -5 6 6 6 11 1 17 -2
13 -5z m-107 -19 c0 12 70 17 70 5 0 -4 -13 -13 -30 -19 -16 -5 -30 -15 -30
-22 0 -8 -7 -6 -19 5 -11 10 -17 25 -14 33 5 12 7 12 14 1 5 -7 9 -8 9 -3z
m159 -1 c-12 -14 -9 -14 26 1 24 9 35 11 28 4 -10 -10 -9 -16 4 -31 23 -26 20
-101 -7 -133 -8 -9 -7 -20 1 -39 11 -23 10 -29 -5 -44 -17 -16 -18 -16 -16 8
1 14 2 29 1 35 -1 13 -41 -61 -41 -77 -1 -13 -55 -78 -65 -78 -3 0 -13 -8 -23
-17 -10 -10 -34 -31 -54 -47 -22 -17 -34 -34 -31 -42 3 -10 0 -12 -10 -8 -17
6 -157 -124 -157 -145 0 -7 -5 -9 -11 -6 -12 8 -51 -24 -43 -36 3 -5 -3 -6
-12 -2 -13 5 -16 3 -11 -10 4 -12 2 -14 -10 -10 -9 4 -19 -1 -25 -10 -5 -10
-17 -17 -26 -17 -11 0 -13 -3 -6 -8 7 -4 -14 -8 -47 -9 -50 -2 -62 1 -84 21
-16 15 -22 27 -15 31 5 3 10 2 10 -4 0 -6 8 -8 18 -5 14 5 15 4 2 -5 -8 -6
-10 -11 -4 -11 12 0 47 59 91 155 13 28 28 57 33 65 5 8 32 60 61 115 77 150
92 176 114 199 l20 21 -23 3 c-12 2 -20 8 -17 13 4 5 14 5 25 -1 21 -11 93 -4
127 12 12 6 36 30 53 54 23 33 38 44 58 45 24 0 25 1 7 9 -16 6 -10 9 25 12
25 3 47 5 49 6 2 1 -3 -5 -10 -14z m121 -29 c-7 -8 -16 -12 -21 -9 -13 8 -1
24 18 24 13 0 13 -3 3 -15z m-470 -5 c0 -5 -2 -10 -4 -10 -3 0 -8 5 -11 10 -3
6 -1 10 4 10 6 0 11 -4 11 -10z m-20 -50 c-9 -6 -19 -5 -25 1 -6 6 -5 13 5 19
9 6 19 5 25 -1 6 -6 5 -13 -5 -19z m75 1 c3 -5 1 -12 -5 -16 -5 -3 -10 1 -10
9 0 18 6 21 15 7z m77 -23 c-7 -7 -12 -8 -12 -2 0 14 12 26 19 19 2 -3 -1 -11
-7 -17z m338 -58 c0 -11 -4 -20 -9 -20 -5 0 -7 9 -4 20 3 11 7 20 9 20 2 0 4
-9 4 -20z m-513 -22 c-3 -8 -6 -5 -6 6 -1 11 2 17 5 13 3 -3 4 -12 1 -19z m23
-40 c0 -6 -6 -5 -15 2 -8 7 -15 14 -15 16 0 2 7 1 15 -2 8 -4 15 -11 15 -16z
m-153 -30 c-3 -8 -6 -5 -6 6 -1 11 2 17 5 13 3 -3 4 -12 1 -19z m30 0 c-3 -8
-6 -5 -6 6 -1 11 2 17 5 13 3 -3 4 -12 1 -19z m543 -49 c0 -6 -4 -7 -10 -4 -5
3 -10 11 -10 16 0 6 5 7 10 4 6 -3 10 -11 10 -16z m-490 -21 c0 -16 -3 -19
-11 -11 -6 6 -8 16 -5 22 11 17 16 13 16 -11z m470 -2 c0 -2 -7 -6 -15 -10 -8
-3 -15 -1 -15 4 0 6 7 10 15 10 8 0 15 -2 15 -4z m-497 -71 c-3 -9 -8 -14 -10
-11 -3 3 -2 9 2 15 9 16 15 13 8 -4z m391 0 c4 -11 -2 -15 -22 -15 -26 1 -26
1 -8 15 24 18 23 18 30 0z m-507 -37 c-3 -7 -5 -2 -5 12 0 14 2 19 5 13 2 -7
2 -19 0 -25z m438 -8 c-3 -5 -12 -10 -18 -10 -7 0 -6 4 3 10 19 12 23 12 15 0z
m55 0 c0 -5 -4 -10 -10 -10 -5 0 -10 5 -10 10 0 6 5 10 10 10 6 0 10 -4 10
-10z m-110 -77 c0 -3 -9 -3 -20 0 -11 3 -20 0 -20 -6 0 -6 -3 -8 -6 -4 -12 11
6 25 26 20 11 -3 20 -8 20 -10z m-370 -89 c0 -11 -28 -33 -34 -27 -13 13 -5
29 14 30 11 1 20 -1 20 -3z m-127 -139 c4 -8 2 -17 -3 -20 -6 -4 -10 3 -10 14
0 25 6 27 13 6z m152 -15 c-12 -5 -14 -9 -6 -9 8 -1 12 -4 8 -7 -9 -9 -28 6
-22 17 4 5 14 9 23 8 14 0 13 -2 -3 -9z m-178 -62 c-3 -8 -6 -5 -6 6 -1 11 2
17 5 13 3 -3 4 -12 1 -19z"/>
<path d="M370 4890 c0 -5 5 -10 10 -10 6 0 10 5 10 10 0 6 -4 10 -10 10 -5 0
-10 -4 -10 -10z"/>
<path d="M7250 4307 c-48 -24 -31 -99 23 -99 15 0 24 -4 21 -9 -3 -5 12 -9 33
-9 25 0 33 -3 25 -9 -10 -6 -9 -10 7 -14 22 -5 26 0 13 20 -10 15 -83 42 -99
36 -14 -5 -25 12 -29 44 -1 14 3 23 12 24 23 2 28 4 41 12 8 5 22 -1 37 -17
13 -14 30 -26 37 -26 11 0 11 2 -1 10 -8 5 -11 10 -6 10 5 0 -1 9 -14 20 -26
23 -64 25 -100 7z"/>
<path d="M7628 4313 c-9 -2 -22 -21 -29 -41 -6 -20 -16 -42 -21 -49 -5 -7 -7
-16 -4 -22 3 -5 0 -12 -6 -14 -10 -4 -9 -8 2 -16 12 -8 12 -13 2 -23 -9 -9
-12 -9 -12 2 0 20 -10 6 -20 -29 -11 -39 8 -39 27 0 7 13 18 24 24 24 7 0 14
6 17 14 3 9 0 11 -8 6 -10 -6 -12 -3 -6 10 4 11 10 38 13 61 4 33 9 41 21 36
11 -4 14 -1 9 11 -4 10 -2 17 4 17 6 0 9 -9 6 -20 -3 -11 0 -23 6 -28 7 -4 13
-16 14 -27 5 -48 16 -85 24 -85 5 0 9 -8 9 -17 0 -15 2 -16 10 -3 8 12 10 12
10 1 0 -8 3 -12 6 -8 3 3 -1 20 -9 39 -9 18 -18 43 -22 56 -4 13 -11 19 -17
16 -8 -5 -9 -1 -5 10 6 15 -16 88 -25 85 -2 -1 -11 -3 -20 -6z"/>
<path d="M7930 4309 c0 -5 -4 -8 -9 -5 -10 6 -25 -10 -34 -37 -7 -20 28 -61
43 -52 6 4 10 2 10 -3 0 -6 7 -13 16 -16 8 -3 12 -2 9 4 -9 14 9 12 23 -2 7
-7 12 -9 12 -5 0 4 9 -2 20 -13 11 -11 20 -25 20 -31 0 -34 -78 -60 -103 -35
-17 18 -32 21 -22 6 4 -6 -1 -7 -12 -3 -16 6 -16 5 -5 -10 8 -9 17 -16 20 -15
4 1 15 -2 25 -7 9 -4 33 -4 52 -1 60 12 87 84 40 110 -11 6 -22 13 -25 16 -3
3 -16 6 -30 8 -33 4 -80 25 -80 35 0 5 5 5 11 1 8 -4 9 0 4 15 -5 16 -2 21 12
21 11 0 24 5 30 11 8 8 13 8 17 0 4 -6 16 -11 27 -11 11 0 19 -7 19 -17 0 -15
2 -16 10 -3 14 22 13 26 -15 38 -32 15 -85 16 -85 1z"/>
<path d="M2850 4190 c0 -5 5 -10 10 -10 6 0 10 5 10 10 0 6 -4 10 -10 10 -5 0
-10 -4 -10 -10z"/>
<path d="M7220 4131 c0 -21 50 -51 84 -51 12 0 30 7 40 15 18 14 17 15 -23 15
-31 0 -40 -3 -35 -12 4 -7 -2 -5 -13 5 -11 9 -25 17 -31 17 -6 0 -9 7 -6 15 4
8 1 15 -5 15 -6 0 -11 -9 -11 -19z"/>
<path d="M7357 4136 c-3 -8 2 -17 11 -21 9 -3 13 -3 9 1 -4 4 -2 13 4 21 9 10
8 13 -4 13 -8 0 -17 -6 -20 -14z"/>
<path d="M7880 4140 c0 -5 4 -10 9 -10 6 0 13 5 16 10 3 6 -1 10 -9 10 -9 0
-16 -4 -16 -10z"/>
<path d="M7450 4111 c0 -5 7 -11 15 -15 8 -3 15 -1 15 3 0 5 -7 11 -15 15 -8
3 -15 1 -15 -3z"/>
<path d="M7805 4100 c-3 -5 -1 -10 4 -10 6 0 11 5 11 10 0 6 -2 10 -4 10 -3 0
-8 -4 -11 -10z"/>
<path d="M8120 4100 c0 -5 4 -10 9 -10 6 0 13 5 16 10 3 6 -1 10 -9 10 -9 0
-16 -4 -16 -10z"/>
<path d="M1258 3993 c7 -3 16 -2 19 1 4 3 -2 6 -13 5 -11 0 -14 -3 -6 -6z"/>
<path d="M7580 3955 c0 -3 4 -13 10 -23 5 -9 17 -34 26 -55 10 -22 39 -61 66
-89 26 -27 48 -57 48 -67 0 -9 -14 -39 -31 -67 -18 -27 -48 -78 -67 -114 -19
-36 -67 -111 -106 -168 -39 -57 -82 -120 -96 -142 -64 -97 -112 -160 -142
-185 -18 -15 -74 -66 -125 -113 -51 -47 -123 -107 -160 -134 -90 -66 -276
-180 -338 -208 -27 -13 -63 -33 -80 -45 -33 -25 -89 -42 -180 -56 -33 -5 -97
-19 -143 -30 -77 -19 -106 -20 -345 -17 -221 4 -280 8 -377 27 -63 12 -133 29
-155 37 -23 8 -55 14 -73 14 -18 0 -47 7 -64 16 -17 9 -54 23 -82 31 -28 8
-55 19 -61 23 -5 4 -21 11 -35 15 -14 4 -63 26 -110 49 -47 23 -111 53 -142
65 -31 12 -65 32 -75 43 -9 11 -32 26 -51 33 -41 18 -189 125 -256 186 -28 25
-61 51 -73 58 -13 6 -23 18 -23 26 0 8 -4 15 -9 15 -18 0 -21 35 -7 84 8 28
15 76 16 106 2 73 1 80 -9 80 -5 0 -11 -35 -14 -77 -3 -43 -11 -96 -17 -118
-16 -53 -104 -139 -159 -156 -49 -15 -53 -29 -8 -29 38 0 68 18 119 73 26 28
40 37 51 31 15 -9 117 -133 117 -143 1 -3 23 -22 50 -41 27 -19 51 -44 52 -55
2 -12 12 -21 24 -23 12 -2 30 -12 40 -23 9 -10 21 -19 25 -19 4 0 21 -12 36
-26 55 -50 60 -54 69 -54 6 0 36 -16 68 -35 32 -19 69 -35 82 -35 13 0 24 -4
24 -10 0 -10 136 -80 156 -80 7 0 29 -8 51 -19 73 -36 342 -116 369 -110 5 1
16 -1 24 -4 8 -3 71 -13 140 -22 210 -27 503 -23 655 9 121 25 218 52 265 73
25 11 72 30 105 43 33 13 70 34 83 47 13 12 34 23 47 23 13 0 32 11 43 25 11
14 24 25 30 25 5 0 17 11 26 25 10 15 26 25 40 25 14 0 38 11 54 25 17 14 34
25 40 25 5 0 43 30 82 68 40 37 82 73 94 81 32 22 197 190 238 241 47 61 158
246 158 265 0 8 4 15 8 15 5 0 14 11 20 24 6 13 27 45 46 70 20 26 40 64 46
86 6 22 14 41 19 44 4 3 14 26 21 51 15 52 19 53 104 25 62 -21 186 -28 186
-10 0 6 -19 10 -42 10 -156 2 -281 72 -369 206 -38 59 -49 72 -49 59z"/>
<path d="M2200 3840 l-895 -5 475 -8 c618 -10 3447 -15 4155 -8 l550 6 -530 8
c-666 10 -2580 14 -3755 7z"/>
<path d="M220 3684 c0 -12 45 -54 58 -54 6 0 12 -5 12 -11 0 -5 -4 -7 -10 -4
-5 3 -10 1 -10 -4 0 -6 7 -11 15 -11 25 0 18 46 -11 69 -26 20 -54 28 -54 15z"/>
<path d="M167 3660 c-21 -24 -21 -29 -3 -26 18 2 46 26 46 37 0 16 -25 9 -43
-11z"/>
<path d="M3732 3659 c-27 -21 -28 -37 -5 -69 10 -14 18 -31 19 -38 4 -24 74
-69 74 -46 0 11 -29 34 -44 34 -8 0 -17 4 -20 9 -4 5 3 7 15 4 17 -5 15 0 -10
25 -17 17 -31 37 -31 45 0 24 28 40 60 35 16 -3 30 -1 30 4 0 9 -4 10 -41 13
-14 1 -35 -6 -47 -16z"/>
<path d="M4795 3660 c28 -4 44 -8 37 -8 -7 -1 -10 -7 -7 -13 4 -6 10 -8 13 -5
3 3 14 -2 25 -11 15 -13 18 -14 12 -3 -22 41 -39 50 -84 48 l-46 -1 50 -7z"/>
<path d="M3834 3642 c3 -5 -4 -26 -15 -46 l-20 -38 24 18 c23 18 34 74 15 74
-5 0 -7 -4 -4 -8z"/>
<path d="M4733 3642 c-9 -5 -14 -42 -16 -109 -3 -93 -1 -103 19 -122 14 -14
28 -19 40 -14 12 4 15 3 10 -5 -5 -8 2 -12 19 -12 15 0 24 4 20 10 -3 6 1 10
9 10 23 0 52 48 37 63 -8 8 -11 6 -11 -7 0 -43 -89 -65 -110 -27 -5 11 -10 57
-10 102 0 63 4 87 17 101 13 14 13 18 2 18 -8 0 -20 -4 -26 -8z"/>
<path d="M140 3613 c0 -40 52 -90 88 -84 7 1 11 -4 10 -11 -2 -6 4 -12 12 -13
8 0 14 -6 12 -13 -1 -7 5 -15 13 -18 12 -5 13 -9 4 -20 -9 -11 -9 -14 0 -14
23 0 1 -17 -30 -24 -39 -8 -69 8 -69 38 0 13 -6 23 -15 23 -8 0 -15 -7 -15
-14 0 -8 5 -11 10 -8 6 3 10 1 10 -4 0 -6 -4 -11 -10 -11 -5 0 -10 -4 -10 -10
0 -5 7 -10 15 -10 8 0 15 -6 15 -14 0 -31 64 -35 99 -6 40 34 32 114 -11 119
-5 1 -17 10 -29 22 -11 11 -27 18 -35 15 -9 -3 -12 -1 -9 4 3 6 1 10 -4 10 -6
0 -11 9 -11 19 0 11 -4 23 -10 26 -5 3 -10 0 -10 -7 0 -9 -3 -9 -10 2 -6 9
-10 10 -10 3z m120 -207 c0 -3 -4 -8 -10 -11 -5 -3 -10 -1 -10 4 0 6 5 11 10
11 6 0 10 -2 10 -4z"/>
<path d="M668 3602 c-5 -22 -2 -122 5 -122 4 0 7 20 7 44 0 50 18 71 55 64 15
-3 25 -1 25 6 0 12 -89 19 -92 8z m22 -16 c0 -3 -4 -8 -10 -11 -5 -3 -10 -1
-10 4 0 6 5 11 10 11 6 0 10 -2 10 -4z"/>
<path d="M1537 3604 c-3 -6 -9 -31 -11 -55 l-6 -44 15 45 c15 43 16 76 2 54z"/>
<path d="M1818 3603 c-7 -15 4 -223 12 -223 4 0 8 46 9 102 1 55 3 105 4 111
2 12 -20 21 -25 10z"/>
<path d="M2152 3590 c-31 -29 -27 -32 12 -12 19 9 32 20 29 25 -7 12 -18 8
-41 -13z"/>
<path d="M2530 3590 c0 -11 6 -20 14 -20 9 0 12 7 9 20 -3 11 -9 20 -14 20 -5
0 -9 -9 -9 -20z"/>
<path d="M5282 3598 c3 -7 1 -21 -4 -32 -8 -14 -7 -17 3 -11 9 6 11 3 6 -9 -4
-11 -3 -15 4 -11 6 4 8 13 5 21 -3 8 -1 14 4 14 5 0 11 -8 14 -17 2 -10 3 -2
2 17 -2 25 -8 36 -20 38 -12 3 -17 -1 -14 -10z"/>
<path d="M5640 3600 c-8 -5 -10 -10 -5 -10 11 0 11 -125 0 -152 -5 -13 -2 -18
9 -18 14 0 16 14 16 95 0 52 -1 95 -2 95 -2 0 -10 -5 -18 -10z"/>
<path d="M6002 3594 c2 -11 8 -22 13 -26 6 -5 5 -8 -3 -8 -17 0 -14 -120 2
-120 6 0 5 -4 -3 -9 -8 -5 -11 -16 -6 -31 15 -47 26 0 23 100 -2 75 -7 105
-16 108 -9 3 -12 -3 -10 -14z"/>
<path d="M6756 3601 c-4 -5 0 -12 6 -14 10 -4 10 -8 2 -14 -6 -4 -16 -30 -23
-58 -6 -27 -15 -67 -20 -87 -7 -30 -6 -38 5 -38 8 0 13 3 13 8 -5 29 3 42 25
42 14 0 28 -5 31 -10 4 -6 10 -8 15 -5 4 3 6 -4 3 -15 -3 -12 0 -20 7 -20 12
0 12 6 -4 99 -7 42 -16 53 -16 18 0 -35 -10 -57 -25 -57 -22 0 -27 17 -19 66
4 31 9 42 15 33 7 -11 9 -9 9 6 0 17 2 17 10 5 6 -9 10 -10 10 -3 0 6 -4 14
-10 18 -5 3 -7 12 -3 20 6 16 -22 21 -31 6z"/>
<path d="M1040 3559 c0 -23 4 -38 9 -34 6 3 8 19 6 36 -4 30 -3 30 38 27 l42
-3 -1 -44 c-1 -39 1 -42 13 -26 33 46 4 85 -63 85 l-44 0 0 -41z"/>
<path d="M1429 3583 c5 -10 9 -21 9 -26 0 -4 8 -43 17 -86 12 -52 23 -78 31
-77 21 3 25 11 30 62 3 35 2 45 -5 34 -6 -8 -11 -30 -11 -47 0 -18 -4 -33 -9
-33 -5 0 -9 13 -9 28 1 15 -4 37 -11 49 -6 12 -11 33 -11 47 0 14 -5 28 -11
31 -6 4 -8 13 -5 21 3 8 -1 14 -10 14 -11 0 -12 -4 -5 -17z"/>
<path d="M2210 3592 c0 -10 22 -32 32 -32 4 0 8 5 8 11 0 5 -4 7 -10 4 -5 -3
-10 1 -10 9 0 9 -4 16 -10 16 -5 0 -10 -4 -10 -8z"/>
<path d="M2850 3580 c-6 -11 -10 -57 -8 -102 3 -81 4 -83 32 -93 22 -7 30 -7
34 3 2 6 8 9 13 6 6 -3 16 0 24 6 17 14 21 100 5 100 -10 0 -14 -25 -10 -67 1
-13 -4 -23 -12 -24 -7 0 -23 -2 -35 -3 -13 -2 -23 1 -23 6 0 5 -4 6 -10 3 -17
-10 -12 137 5 159 20 27 67 12 75 -24 4 -18 8 -21 14 -11 5 7 3 23 -5 37 -17
32 -83 35 -99 4z"/>
<path d="M6315 3581 c4 -13 3 -21 -2 -18 -10 7 -1 -89 10 -100 11 -11 8 111
-4 127 -8 12 -9 10 -4 -9z"/>
<path d="M6345 3591 c11 -4 23 -7 27 -4 4 2 16 -1 27 -6 17 -9 19 -21 18 -79
-3 -82 -14 -99 -61 -96 -20 2 -38 -1 -41 -6 -10 -16 91 -12 105 4 14 18 25
156 13 173 -5 7 -31 15 -59 18 -33 4 -43 2 -29 -4z"/>
<path d="M7121 3595 c3 -2 23 -5 44 -7 56 -3 65 -16 65 -92 0 -76 -16 -95 -78
-90 -28 2 -32 1 -17 -6 31 -14 81 -11 95 5 6 7 12 47 13 87 2 89 -12 108 -81
108 -25 0 -43 -2 -41 -5z"/>
<path d="M7122 3500 c2 -44 6 -80 11 -80 4 0 7 36 7 80 0 49 -4 80 -10 80 -7
0 -10 -29 -8 -80z"/>
<path d="M2528 3474 c-2 -47 0 -88 5 -91 4 -2 7 -3 7 -1 9 52 10 178 2 178 -6
0 -12 -36 -14 -86z"/>
<path d="M2130 3496 c0 -30 4 -66 9 -79 11 -27 51 -44 51 -21 0 8 -3 13 -7 13
-29 -5 -33 4 -33 71 0 40 -4 70 -10 70 -5 0 -10 -24 -10 -54z"/>
<path d="M3712 3528 c-7 -7 -12 -32 -12 -57 0 -36 6 -51 25 -69 25 -24 55 -26
63 -4 2 6 -4 12 -13 12 -10 0 -13 -4 -8 -12 4 -7 -7 -2 -24 12 -28 22 -32 30
-30 68 1 29 6 41 15 37 6 -2 12 0 12 5 0 15 -16 20 -28 8z"/>
<path d="M3885 3498 c3 -33 0 -37 -17 -35 -11 2 -24 10 -29 18 -6 9 -7 1 -4
-24 3 -27 0 -40 -10 -44 -8 -3 -15 -13 -15 -22 1 -14 3 -13 15 3 8 11 15 16
15 10 0 -5 5 -2 10 6 7 12 10 12 10 1 0 -8 6 -11 16 -7 8 3 12 2 9 -4 -3 -6
-2 -10 3 -10 17 0 21 12 10 30 -8 12 -8 26 0 49 6 17 7 31 2 31 -5 0 -11 8
-13 18 -3 9 -3 0 -2 -20z"/>
<path d="M5260 3520 c0 -8 -7 -40 -14 -71 -11 -47 -11 -56 0 -56 9 0 12 8 8
26 -4 20 -3 23 5 11 7 -10 11 -11 11 -2 0 15 42 16 58 0 7 -7 12 -20 12 -30 0
-10 4 -18 9 -18 5 0 8 11 7 24 -5 38 -30 116 -38 116 -4 0 -6 -6 -4 -12 3 -7
7 -26 11 -43 5 -23 4 -27 -6 -18 -6 6 -18 9 -25 6 -13 -5 -18 7 -15 35 1 6 -3
20 -8 30 -8 13 -11 14 -11 2z"/>
<path d="M691 3494 c0 -11 3 -14 6 -6 3 7 2 16 -1 19 -3 4 -6 -2 -5 -13z"/>
<path d="M710 3501 c0 -5 9 -7 20 -4 11 3 20 7 20 9 0 2 -9 4 -20 4 -11 0 -20
-4 -20 -9z"/>
<path d="M1047 3503 c-9 -18 -6 -113 3 -113 5 0 10 23 10 50 0 29 5 50 11 50
5 0 7 5 4 10 -7 12 -22 13 -28 3z"/>
<path d="M1118 3481 c15 -12 22 -30 22 -55 0 -20 4 -36 8 -36 14 0 -4 91 -19
101 -25 16 -32 9 -11 -10z"/>
<path d="M671 3453 c0 -6 -4 -20 -7 -30 -5 -14 -4 -15 5 -7 7 7 11 20 8 30 -3
11 -5 14 -6 7z"/>
<path d="M2230 3436 c0 -7 -7 -19 -15 -26 -9 -7 -13 -15 -10 -18 7 -8 45 29
45 45 0 7 -4 13 -10 13 -5 0 -10 -6 -10 -14z"/>
<path d="M6310 3436 c0 -9 5 -16 10 -16 6 0 10 4 10 9 0 6 -4 13 -10 16 -5 3
-10 -1 -10 -9z"/>
<path d="M673 3399 c-13 -4 -8 -7 18 -10 21 -3 36 0 36 6 0 12 -26 14 -54 4z"/>
<path d="M740 3395 c0 -8 5 -15 10 -15 6 0 10 7 10 15 0 8 -4 15 -10 15 -5 0
-10 -7 -10 -15z"/>
<path d="M5690 3400 c-12 -8 -9 -10 13 -10 15 0 27 5 27 10 0 13 -20 13 -40 0z"/>
</g>
</svg>
