<?xml version="1.0" standalone="no"?>
<!DOCTYPE svg PUBLIC "-//W3C//DTD SVG 20010904//EN"
 "http://www.w3.org/TR/2001/REC-SVG-20010904/DTD/svg10.dtd">
<svg version="1.0" xmlns="http://www.w3.org/2000/svg"
 width="512.000000pt" height="512.000000pt" viewBox="0 0 512.000000 512.000000"
 preserveAspectRatio="xMidYMid meet">

<g transform="translate(0.000000,512.000000) scale(0.100000,-0.100000)"
fill="#000000" stroke="none">
<path d="M659 5105 c-175 -28 -301 -88 -409 -195 -124 -124 -191 -277 -231
-525 -20 -118 -17 -494 4 -615 27 -157 64 -285 137 -470 124 -318 155 -443
195 -785 80 -680 111 -838 206 -1027 97 -193 249 -289 460 -290 184 0 302 43
406 148 110 112 161 254 208 579 38 261 51 311 94 354 28 28 89 28 125 0 36
-29 60 -116 96 -351 16 -108 38 -233 50 -278 71 -278 226 -423 480 -449 154
-16 280 14 385 92 50 36 136 135 147 168 2 7 44 -2 118 -24 63 -19 134 -38
158 -42 l42 -7 0 -148 0 -148 -34 -34 c-54 -54 -58 -82 -54 -456 l3 -337 27
-57 c131 -280 516 -273 631 12 21 53 22 66 22 411 l0 355 -28 43 c-15 23 -34
44 -42 48 -12 4 -15 34 -15 158 l0 153 98 22 c309 71 605 251 810 493 405 478
485 1134 207 1687 -149 297 -411 555 -705 694 -184 87 -336 127 -564 149
l-128 12 -23 91 c-105 415 -391 605 -875 581 -151 -7 -285 -42 -416 -107
l-100 -51 -95 32 c-82 28 -110 33 -224 37 -139 4 -219 -8 -323 -50 l-53 -21
-107 51 c-125 59 -209 86 -317 101 -101 14 -259 12 -366 -4z m351 -165 c74
-12 177 -44 234 -72 l39 -20 -46 -46 c-68 -70 -127 -161 -127 -194 0 -35 48
-88 80 -88 35 0 56 16 104 83 25 36 68 85 96 111 63 56 188 120 267 136 85 18
263 8 340 -20 119 -42 227 -127 300 -237 42 -62 79 -81 123 -63 36 15 50 37
50 80 0 36 -30 86 -106 175 l-55 66 65 30 c107 50 238 72 391 66 221 -10 340
-52 451 -162 70 -69 124 -169 153 -285 l19 -74 -107 -22 c-653 -133 -1145
-667 -1222 -1329 -16 -132 -6 -352 21 -480 93 -440 364 -810 765 -1041 18 -10
18 -13 -13 -54 -39 -54 -108 -104 -166 -120 -28 -8 -83 -11 -143 -8 -82 3
-108 8 -155 31 -140 68 -195 189 -248 539 -44 293 -68 372 -137 449 -51 56
-102 79 -182 79 -125 0 -199 -45 -250 -153 -37 -80 -54 -152 -86 -370 -52
-356 -104 -471 -243 -539 -64 -32 -71 -33 -187 -33 -114 0 -123 1 -173 29
-174 97 -240 297 -317 961 -19 171 -40 339 -46 375 -31 199 -86 388 -180 623
-112 276 -144 442 -143 742 0 280 24 408 103 560 80 154 225 248 425 274 90
12 232 12 306 1z m2836 -701 c536 -101 956 -518 1076 -1067 28 -131 31 -385 4
-517 -56 -283 -182 -521 -381 -720 -197 -196 -463 -334 -734 -379 -119 -20
-328 -20 -449 -1 -420 68 -795 341 -989 720 -63 124 -95 212 -124 346 -31 138
-34 408 -6 539 60 282 180 504 376 700 120 120 195 176 331 248 275 146 581
190 896 131z m-176 -2999 l0 -130 -85 0 -85 0 0 130 0 130 85 0 85 0 0 -130z
m80 -628 l0 -329 -29 -40 c-30 -42 -90 -73 -139 -73 -35 1 -102 31 -125 58
-42 47 -46 83 -47 405 l0 307 170 0 170 0 0 -328z"/>
<path d="M3478 4090 c-418 -38 -780 -287 -963 -664 -64 -131 -98 -244 -115
-380 -62 -492 195 -978 637 -1204 202 -103 364 -138 597 -129 199 8 319 38
488 123 213 107 379 267 504 485 53 92 114 259 133 363 52 286 -6 595 -158
842 -237 384 -675 604 -1123 564z m382 -203 c180 -54 326 -141 449 -266 486
-493 360 -1303 -252 -1626 -251 -133 -562 -152 -835 -51 -228 83 -441 276
-552 500 -253 509 -49 1117 460 1373 159 80 271 103 480 99 142 -3 177 -7 250
-29z"/>
<path d="M3475 3556 c-60 -28 -97 -66 -124 -126 -17 -37 -21 -66 -21 -157 l0
-113 -92 0 c-156 -1 -228 -28 -288 -111 -86 -120 -51 -291 77 -366 44 -26 59
-28 173 -33 l125 -5 5 -125 c5 -114 8 -129 33 -172 104 -177 361 -167 452 17
16 32 21 66 23 163 l4 122 114 0 c160 0 224 30 279 132 67 123 18 280 -108
345 -45 23 -67 27 -169 31 l-118 4 0 102 c0 66 -6 119 -15 147 -48 141 -213
210 -350 145z m150 -152 c36 -14 45 -57 45 -214 0 -147 1 -152 25 -175 23 -24
29 -25 168 -25 82 0 158 -5 177 -11 39 -14 65 -65 51 -101 -20 -52 -34 -56
-209 -60 l-164 -3 -24 -28 c-23 -27 -24 -34 -24 -183 l0 -156 -29 -29 c-37
-37 -78 -38 -115 -4 -26 24 -26 25 -26 174 0 82 -4 161 -10 176 -17 43 -62 55
-219 55 -77 0 -147 3 -156 6 -25 10 -47 62 -40 95 13 57 50 69 217 69 80 0
154 3 163 6 36 14 45 57 45 214 0 147 1 152 25 175 24 25 65 32 100 19z"/>
</g>
</svg>
